<?xml version="1.0" encoding="UTF-8"?>
<svg width="217px" height="217px" viewBox="0 0 217 217" version="1.1" xmlns="http://www.w3.org/2000/svg" xmlns:xlink="http://www.w3.org/1999/xlink">
    <!-- Generator: Sketch 41.2 (35397) - http://www.bohemiancoding.com/sketch -->
    <title>Head</title>
    <desc>Created with Sketch.</desc>
    <defs>
        <polygon id="path-1" points="152.5 42 230.635299 74.3647007 263 152.5 230.635299 230.635299 152.5 263 74.3647007 230.635299 42 152.5 74.3647007 74.3647007"></polygon>
        <path d="M69.887133,184.336789 L69.887133,184.336789 L69.887133,181.918307 C69.887133,180.792544 70.3210009,179.60954 69.4939403,178.55533 C68.8592765,177.542347 68.5769995,176.505976 68.6533214,175.469023 C68.5041793,173.861472 68.6533214,172.244381 68.3008037,170.6416 C67.9754029,169.296409 66.9449667,167.970299 67.1483423,166.596487 C67.1436503,166.392085 66.8369308,166.203274 66.3387312,166.098107 C65.8405316,165.992939 65.2226701,165.986575 64.7078357,166.081307 C60.2742487,166.753903 55.7457532,166.496313 51.230816,166.329357 C50.2952885,166.295966 49.4682279,166.095618 49.4411112,166.620338 C49.4411112,167.345405 48.9123347,168.127715 49.5360197,168.78123 C50.8105065,170.126421 50.241055,171.481152 50.5664559,172.831113 C51.0409988,174.820278 49.9563292,176.847605 51.8409426,178.798609 C51.4206332,181.298183 53.2781298,183.740516 53.2781298,186.22578 C53.2781298,187.179816 53.4137135,188.133852 53.5899724,189.12128 C53.6100225,189.444632 54.017887,189.749914 54.7127537,189.961668 C55.4076203,190.173422 56.3246479,190.27189 57.2371739,190.232732 L68.2194535,190.232732 C68.6767643,190.254699 69.1378537,190.202962 69.4745741,190.091899 C69.8112945,189.980836 69.9877594,189.822285 69.9549249,189.66031 C69.9006914,187.881033 69.887133,186.106526 69.887133,184.336789 Z" id="path-3"></path>
        <mask id="mask-4" maskContentUnits="userSpaceOnUse" maskUnits="objectBoundingBox" x="-2" y="-2" width="24.7689848" height="28.2266665">
            <rect x="47.2318841" y="164.014493" width="24.7689848" height="28.2266665" fill="white"></rect>
            <use xlink:href="#path-3" fill="black"></use>
        </mask>
        <path d="M13.2047032,172.7194 C18.4106264,173.750074 24.6197744,171.539548 30.9916075,171.363249 C33.4995306,171.512584 36.0163085,171.362348 38.4886793,170.915719 C40.4700244,170.417072 42.5056124,170.166527 44.5486993,170.169836 C48.4395846,170.074905 52.4524838,170.563119 56.1942411,169.76299 C60.6597945,168.891861 65.2018472,168.473856 69.7513328,168.515331 C70.4345896,168.543108 71.1154322,168.418015 71.7442253,168.149171 C74.347187,166.793019 77.167062,167.932186 79.8784804,167.132057 C82.4905217,166.35204 85.2056563,165.972529 87.9313929,166.006452 C92.2832193,166.006452 96.6486029,166.006452 100.986872,165.748783 C105.325142,165.491114 110.04301,165.0029 114.543964,164.596055 C115.506517,164.501124 116.292829,164.094279 116.306386,162.927989 C116.306386,159.266381 116.509742,155.591212 116.441957,151.929604 C116.39898,149.423277 116.190652,146.922522 115.818331,144.44365 C115.208261,140.375197 114.232151,136.428797 113.716981,132.387467 C112.959674,126.092749 111.471924,119.907703 109.283812,113.957374 C106.575435,106.590229 101.351016,100.417833 94.5336966,96.5308328 C90.6970396,94.2931835 78.793913,90.7943138 74.4692008,90.2518534 C69.4937481,89.6144624 64.4640671,90.6180142 59.4886144,89.4788473 C57.8617634,89.1126865 55.9637705,89.8721311 54.1877915,90.1433613 C47.6532733,91.1333516 41.4441253,92.6115562 35.7637038,96.5579558 C30.9179557,99.9067325 26.5291691,103.872972 22.7082245,108.35647 C20.9322455,110.444943 18.7631108,112.343554 17.5429725,114.73038 C13.1233606,123.43687 7.95810867,131.831445 5.34158996,141.351625 C3.70118186,147.237321 1.51849009,153.041648 2.00654539,159.34775 C1.96594645,160.249183 1.77818618,161.1379 1.45070463,161.978683 C0.474594021,165.572484 1.04399187,169.234091 0.921978049,172.827892 C0.921978049,173.058437 1.57271845,173.560213 1.77607483,173.492406 C5.08400521,172.3668 8.56817779,173.288983 13.2047032,172.7194 Z" id="path-5"></path>
        <mask id="mask-6" maskContentUnits="userSpaceOnUse" maskUnits="objectBoundingBox" x="-2" y="-2" width="119.589914" height="88.1176907">
            <rect x="-1.13412292" y="87.3809595" width="119.589914" height="88.1176907" fill="white"></rect>
            <use xlink:href="#path-5" fill="black"></use>
        </mask>
        <path d="M59.5428428,48.5502081 C60.0444552,49.8249901 60.5189534,51.2625103 61.196808,52.7135919 C61.7903338,53.6746942 62.7968831,54.3050691 63.920424,54.4193197 C65.0439648,54.5335703 66.1567332,54.1187046 66.9314578,53.2967369 C68.0101106,51.8537536 68.8185133,50.227232 69.3175059,48.4959621 C69.8462325,46.5431045 67.6635407,43.0713578 65.779105,42.3390362 C64.4233958,41.7965758 61.7119774,43.0442348 60.6274101,45.0513384 C60.1377426,46.1739523 59.7739985,47.3474094 59.5428428,48.5502081 L59.5428428,48.5502081 Z" id="path-7"></path>
        <mask id="mask-8" maskContentUnits="userSpaceOnUse" maskUnits="objectBoundingBox" x="-2" y="-2" width="13.8550335" height="16.2260711">
            <rect x="57.5428428" y="40.2119074" width="13.8550335" height="16.2260711" fill="white"></rect>
            <use xlink:href="#path-7" fill="black"></use>
        </mask>
        <path d="M71.8428184,135.428644 C78.3460643,135.862055 84.1830734,131.458652 85.5543012,125.084789 C87.2294598,118.878476 81.9764935,110.2517 75.7722026,108.886311 C75.0760945,108.742139 74.3522409,108.821789 73.7041057,109.113876 C71.1810274,110.293076 68.5338633,111.368837 67.1482383,114.016864 C66.0314659,116.085635 65.0801413,118.423346 63.942688,120.55418 C62.6323193,122.637983 62.6484523,125.292724 63.98405,127.360437 C64.9294147,128.822682 65.7130046,130.383436 66.3209995,132.015172 C66.9789371,134.427704 69.3914885,135.919093 71.8428184,135.428644 Z" id="path-9"></path>
        <mask id="mask-10" maskContentUnits="userSpaceOnUse" maskUnits="objectBoundingBox" x="-2" y="-2" width="26.8985507" height="30.7055134">
            <rect x="60.9710145" y="106.816276" width="26.8985507" height="30.7055134" fill="white"></rect>
            <use xlink:href="#path-9" fill="black"></use>
        </mask>
        <path d="M55.1331829,123.863608 L55.1331829,121.539286 C54.9962581,117.258327 52.0432814,113.584947 47.8927902,112.532539 C45.6946205,111.906047 43.33763,112.179619 41.3412686,113.292963 C39.3449072,114.406307 37.8730357,116.26804 37.2500354,118.467861 C36.9159035,119.079317 36.6180279,119.709911 36.3579526,120.356372 C34.1173726,128.906556 36.0052687,132.144004 44.6563969,134.738113 C44.9883347,134.738113 45.2787802,135.173923 45.5899719,135.194676 C46.2825497,135.348059 47.0051911,135.290229 47.664583,135.028653 C51.5855979,132.227015 56.0460117,129.674412 55.1331829,123.863608 Z" id="path-11"></path>
        <mask id="mask-12" maskContentUnits="userSpaceOnUse" maskUnits="objectBoundingBox" x="-2" y="-2" width="23.76064" height="27.0756787">
            <rect x="33.4927536" y="110.202899" width="23.76064" height="27.0756787" fill="white"></rect>
            <use xlink:href="#path-11" fill="black"></use>
        </mask>
        <path d="M61.7364301,138.98688 C60.7018269,141.354386 59.7122065,143.661046 58.6888489,145.95111 C58.1659245,147.129332 57.5642803,148.279896 57.0301101,149.452586 C56.102341,151.482668 55.1745718,153.507218 54.2917854,155.537299 C53.3021649,157.838427 52.3519044,160.161681 51.4072667,162.479404 C51.2674614,162.782065 51.2654858,163.129014 51.4018357,163.433197 C51.5381857,163.73738 51.7999205,163.969928 52.1213678,164.072492 L56.5802827,165.781743 C59.3917044,166.888055 58.8968942,166.849334 60.1564111,164.17206 C60.2974138,163.923687 60.4033484,163.657567 60.4712903,163.381048 C60.9436092,160.526764 62.4786454,158.004374 63.0802897,155.194343 C64.7165371,151.549046 65.8411058,147.688019 67.7922325,144.169949 C68.0418521,143.670836 68.2505605,143.152911 68.4163681,142.621113 C68.4978484,142.449287 68.4940654,142.250066 68.4061185,142.081354 C68.3181717,141.912642 68.155927,141.793365 67.9665406,141.75819 C65.6859585,141.364609 63.543148,140.411433 61.7364301,138.98688 L61.7364301,138.98688 Z" id="path-13"></path>
        <mask id="mask-14" maskContentUnits="userSpaceOnUse" maskUnits="objectBoundingBox" x="-2" y="-2" width="21.1485453" height="31.8995611">
            <rect x="49.3009744" y="136.98688" width="21.1485453" height="31.8995611" fill="white"></rect>
            <use xlink:href="#path-13" fill="black"></use>
        </mask>
        <path d="M202.077171,1.44304074 C199.661503,1.92276227 197.222417,2.27584326 194.769899,2.50083857 C190.89257,2.73138426 186.974571,2.65001519 183.083686,2.62289217 C178.989089,2.77870508 174.911223,3.23194895 170.882303,3.97904324 C165.061728,4.98221832 159.16435,5.47231399 153.258084,5.44368639 C152.32851,5.3659914 151.394618,5.52947578 150.546665,5.91833926 C148.833908,6.63241985 146.968801,6.9029485 145.123829,6.70490688 C139.212937,6.84052198 133.234259,6.18956947 127.499609,8.06105794 C120.843077,7.51859751 114.376345,9.49857807 107.746927,9.52570109 C98.7043466,9.52570109 89.743109,11.1259593 80.6327433,11.0039058 C75.8986504,10.9502085 71.1987159,11.8112998 66.7909526,13.5399082 C65.0285307,14.2179838 64.2422194,14.9774284 64.8387314,16.3878255 C65.7957622,18.9874287 66.1840996,21.7621711 65.9775271,24.5247319 C65.9097417,27.5489487 67.1569941,30.3290584 67.1976654,33.2854677 C67.1976654,37.8692583 67.0620945,42.4666105 67.1976654,47.0504011 C67.3603505,50.8611855 66.1673264,54.8618312 68.4855891,58.4556315 C68.7006776,58.8820801 68.7006776,59.385334 68.4855891,59.8117826 C66.696053,62.8088764 67.3332363,66.1043235 67.6450494,69.2099095 C67.756435,70.942881 68.0195469,72.6627413 68.4313607,74.349722 C68.7292406,76.1416584 68.8111684,77.9628688 68.6753884,79.7743263 C68.6753884,81.6051302 68.6753884,83.4494956 68.8380735,85.2667381 C69.0007586,87.0839805 69.7192845,88.8062923 69.8141841,90.5964118 C70.1802256,97.3771671 69.3803572,104.307099 71.27835,111.006485 C70.0039834,113.881526 71.5494918,116.729443 71.3868067,119.618045 C70.9840268,123.72778 71.1253373,127.87272 71.8070766,131.945458 C72.4069413,135.073484 72.6930596,138.253613 72.6611734,141.438515 C72.7831872,148.083655 72.8374156,154.728796 72.9323152,161.387497 C72.7892565,162.293485 72.8494578,163.219961 73.1085574,164.099799 C74.4642666,166.486625 73.9762113,169.022628 74.0168825,171.504384 C74.1524535,178.610616 74.1931247,185.716847 74.3015815,192.823079 C74.2689232,193.952835 74.4013727,195.081307 74.6947371,196.172772 C75.767073,199.38171 76.4942299,202.695899 76.8638718,206.059113 C76.9723285,207.076227 77.487498,207.82211 78.5585083,207.808548 C84.7405421,207.808548 90.922576,207.700056 97.1046098,207.64581 C100.18207,206.167606 103.191744,206.669381 106.391218,207.537318 C108.533238,208.120463 110.9464,207.686495 113.237549,207.686495 C115.759168,207.686495 118.457029,208.215394 120.748178,207.496634 C123.039326,206.777873 125.222018,207.781425 127.228468,207.252526 C129.016301,206.891816 130.829296,206.669651 132.651304,206.588012 C139.212937,205.882814 145.923697,207.225403 152.403987,205.231861 C153.088901,205.158099 153.779751,205.158099 154.464665,205.231861 C163.954629,204.567347 173.593721,205.381038 183.192142,204.079133 C191.963581,202.88572 200.979047,204.309679 209.777599,202.492436 C215.674934,202.763666 221.640055,201.760115 227.483161,203.414619 C227.92463,203.579905 228.41737,203.534617 228.821339,203.291629 C229.225308,203.04864 229.496337,202.634518 229.557396,202.16696 C229.706524,198.980005 231.089348,196.023596 230.980891,192.755271 C230.818206,187.723951 231.089348,182.679069 231.17069,177.634187 C231.17069,176.278036 230.818206,174.704901 231.333375,173.565734 C232.689084,170.460148 232.201029,167.273193 232.268815,164.072676 C232.404385,156.966445 232.594185,149.860213 232.458614,142.753982 C232.390828,138.916074 232.973783,134.983236 231.319818,131.240259 C231.029356,130.368544 231.097648,129.417032 231.509617,128.595765 C232.208868,126.878547 232.474279,125.01541 232.282372,123.17116 C232.350157,119.740098 232.485728,116.309036 232.485728,112.864412 L232.485728,51.6206301 C232.485728,43.6057774 232.363714,35.5909246 232.485728,27.5760718 C232.607742,19.561219 231.509617,11.5870507 233.570295,3.69425151 C233.700188,3.2482496 233.647417,2.76888165 233.423618,2.36184111 C233.199818,1.95480057 232.823369,1.65351372 232.377271,1.52440981 C231.319818,1.131126 230.303036,0.249627807 229.272697,0.236066296 C225.639397,0.236066296 221.911196,-0.550501322 218.427024,0.764965211 C216.501917,1.49728679 214.359896,0.683596147 212.543246,2.22960836 C210.252098,4.23671194 208.394776,1.02263391 206.157856,1.45660225 C204.798953,1.54657063 203.435446,1.54203923 202.077171,1.44304074 L202.077171,1.44304074 Z" id="path-15"></path>
        <mask id="mask-16" maskContentUnits="userSpaceOnUse" maskUnits="objectBoundingBox" x="-2" y="-2" width="172.998649" height="211.871224">
            <rect x="62.6414539" y="-1.99722194" width="172.998649" height="211.871224" fill="white"></rect>
            <use xlink:href="#path-15" fill="black"></use>
        </mask>
        <path d="M149.882368,124.052659 C149.848553,124.350053 149.848553,124.650324 149.882368,124.947718 C150.004382,125.368125 150.194181,125.761409 150.343309,126.181816 C150.655122,125.991955 151.102506,125.883462 151.251634,125.612232 C154.925606,118.831477 159.114747,112.349075 162.192207,105.269966 C166.964304,94.1902121 173.037881,83.6800413 177.565949,72.491795 C179.626627,67.4469131 181.836433,62.4698387 183.869997,57.4113952 C184.199094,56.3286154 184.381482,55.2065629 184.412281,54.0752636 C184.520737,53.1530808 183.964897,52.6241819 183.287042,52.9496582 C180.575624,54.2244402 177.959105,55.5399067 175.274801,56.8011272 C172.197341,58.2522089 169.119881,59.689729 165.947522,60.9509495 C160.728041,63.0394221 154.884935,63.568321 150.275524,67.2434904 C149.421427,67.9351275 148.106389,67.2434904 147.157393,66.4840458 C146.415868,65.9650816 146.218119,64.9520374 146.710008,64.1921505 C148.291453,59.9343568 149.31671,55.4901263 149.760354,50.9696776 C150.614451,44.8941209 152.159959,38.9948637 153.312312,33.000676 C153.651239,31.2241181 153.854596,29.4339987 154.030838,27.5760718 C154.030838,27.264157 153.624125,26.9115577 153.407212,26.57252 C153.23097,26.7216966 153.000499,26.8437502 152.905599,27.0336113 C150.316195,32.0920548 147.72679,37.1369368 145.205171,42.2360648 C140.36529,52.0274755 135.186481,61.656148 130.089014,71.3255051 C127.757194,75.7601191 125.289804,80.113364 122.971541,84.547978 C122.510435,85.3238117 122.383265,86.2534353 122.619056,87.124665 C123.391811,88.4808161 124.489935,87.3280877 125.520274,87.124665 C128.630702,86.5135642 131.689941,85.6657655 134.671311,84.5886625 C137.667428,83.5851107 140.853345,83.1104579 143.686777,81.5780072 C144.102023,81.352929 144.570664,81.2451066 145.042486,81.2660924 C148.350417,81.4559536 151.210963,79.9099414 154.20708,78.9063896 C156.281315,78.228314 157.447225,79.4352885 156.823599,81.3745845 C155.820374,84.4666089 156.010173,87.6942485 155.27809,90.7320269 C154.478222,94.08172 154.72225,97.5127822 153.705468,100.781106 C153.087122,102.964506 152.727649,105.213083 152.634458,107.480493 C152.563421,109.51751 152.272514,111.540882 151.766804,113.515365 C150.917585,116.984622 150.288188,120.504054 149.882368,124.052659 Z" id="path-17"></path>
        <mask id="mask-18" maskContentUnits="userSpaceOnUse" maskUnits="objectBoundingBox" x="-3" y="-3" width="67.9227136" height="105.609296">
            <rect x="119.503158" y="23.57252" width="67.9227136" height="105.609296" fill="white"></rect>
            <use xlink:href="#path-17" fill="black"></use>
        </mask>
        <path d="M49.8191025,29.7096694 L49.6970887,29.7096694 L49.6970887,22.183031 C49.6970887,19.6741516 50.1580298,16.9618494 49.3581614,14.7106387 C48.2464799,11.5643682 48.4498363,8.43165922 48.260037,5.29895026 C48.0024522,0.932143834 46.6874143,-0.0307234224 42.9049857,1.74583447 C41.4357026,2.36477573 40.0653469,3.19639586 38.8378582,4.21402941 C36.6230154,6.18735182 34.5482779,8.31261182 32.6287102,10.5743779 C29.6876684,13.8282842 28.5411927,18.3243398 29.5648075,22.5898763 C30.2833333,25.6683393 31.0425305,28.7196792 31.7474992,31.7981421 C31.8947521,32.6880878 32.3334957,33.5038445 32.9947517,34.1171604 C33.7638333,34.9145229 34.4330503,35.802549 34.9876442,36.761655 C37.6833886,41.0511615 42.3554913,43.6963215 47.4194973,43.800079 C49.0327912,43.8814481 49.7919884,43.0948804 49.8055454,41.2911995 C49.8326596,37.453292 49.8191025,33.5882615 49.8191025,29.7096694 Z" id="path-19"></path>
        <mask id="mask-20" maskContentUnits="userSpaceOnUse" maskUnits="objectBoundingBox" x="-2" y="-2" width="24.6316347" height="46.9026283">
            <rect x="27.1976005" y="-1.09684329" width="24.6316347" height="46.9026283" fill="white"></rect>
            <use xlink:href="#path-19" fill="black"></use>
        </mask>
        <path d="M37.375848,91.0517425 C37.3001697,90.5947927 37.2006146,90.1421221 37.077592,89.6955914 C35.450741,84.74564 33.376506,79.8906192 32.2648244,74.7779297 C29.7296483,63.2506456 25.0660087,52.3878756 22.1783482,40.9826452 C21.7174071,39.1654027 21.1615663,36.914192 19.0737742,35.8835172 C17.9078643,36.968438 16.6741689,37.9855513 15.5896016,39.1654027 C12.8445502,42.2330589 9.5933219,44.806449 5.97762355,46.7734102 C4.89840706,47.2457784 4.35314926,48.4598124 4.71681402,49.5806429 C5.01237209,50.9027554 5.41127319,52.1996065 5.90983809,53.459235 C8.14878846,59.6146331 10.0763381,65.8789483 11.6851592,72.2283657 C12.7697265,76.3646264 14.166107,80.3652721 14.8710757,84.664271 C15.3072339,87.7990455 16.3873469,90.8095718 18.0434352,93.5063759 C19.5889437,95.9067633 20.0634419,98.9309802 21.0802238,101.751774 C21.5276078,102.97231 21.8258638,102.985872 23.1137875,102.226427 C23.9412479,101.855165 24.7161611,101.376386 25.4184931,100.802469 C28.3401672,97.9262912 31.6264292,95.4459733 35.1931563,93.4250068 C35.7752031,93.0657696 36.308353,92.632729 36.779336,92.1366633 C37.0270263,91.8041351 37.2277498,91.4390642 37.375848,91.0517425 Z" id="path-21"></path>
        <mask id="mask-22" maskContentUnits="userSpaceOnUse" maskUnits="objectBoundingBox" x="-2" y="-2" width="36.7713671" height="70.8594659">
            <rect x="2.60448097" y="33.8835172" width="36.7713671" height="70.8594659" fill="white"></rect>
            <use xlink:href="#path-21" fill="black"></use>
        </mask>
        <path d="M0.622572312,24.5054097 L0.459887211,24.5054097 L0.459887211,40.3181311 C0.459887211,41.2267523 0.52767267,42.1489351 0.60901522,43.0304333 C0.969561376,43.8785467 1.87377198,44.3590652 2.7781499,44.1831617 C4.4688944,43.532057 6.07556266,42.6806551 7.56380329,41.6471592 C10.2354399,39.481914 12.7289224,37.1055308 15.0202037,34.5409276 C18.3959196,30.648774 19.5211582,25.7801917 20.5921685,20.8166788 C21.1480092,18.2671148 19.8871997,16.3820648 19.4533727,14.2800307 C18.4308461,9.77777936 15.8706726,5.77320694 12.2138858,2.95616929 C10.1386517,1.13066649 7.49253923,0.0853031941 4.73037111,-0.000240026737 C2.88660663,-0.000240026737 2.26298041,0.298113208 1.7884822,1.99330204 C0.996650302,4.36328258 0.589299927,6.84480917 0.581901037,9.34364081 C0.75814323,14.4156458 0.622572312,19.4605278 0.622572312,24.5054097 Z" id="path-23"></path>
        <mask id="mask-24" maskContentUnits="userSpaceOnUse" maskUnits="objectBoundingBox" x="-2" y="-2" width="24.2713616" height="48.2194822">
            <rect x="-1.54011279" y="-2.00024003" width="24.2713616" height="48.2194822" fill="white"></rect>
            <use xlink:href="#path-23" fill="black"></use>
        </mask>
    </defs>
    <g id="Layout" stroke="none" stroke-width="1" fill="none" fill-rule="evenodd">
        <g id="Character-Copy" transform="translate(-287.000000, -106.000000)">
            <g id="Head" transform="translate(243.000000, 62.000000)">
                <mask id="mask-2" fill="white">
                    <use xlink:href="#path-1"></use>
                </mask>
                <use id="Mask" fill="#F2F5F6" transform="translate(152.500000, 152.500000) rotate(32.000000) translate(-152.500000, -152.500000) " xlink:href="#path-1"></use>
                <g id="Robot" mask="url(#mask-2)">
                    <g transform="translate(0.000000, 40.000000)">
                        <g id="Head" transform="translate(89.304348, 0.000000)">
                            <g id="Neck" transform="translate(59.616376, 178.127826) scale(-1, 1) translate(-59.616376, -178.127826) ">
                                <use fill="#209BFF" fill-rule="evenodd" xlink:href="#path-3"></use>
                                <use stroke="#000000" mask="url(#mask-4)" stroke-width="4" xlink:href="#path-3"></use>
                            </g>
                            <g id="Face">
                                <use fill="#209BFF" fill-rule="evenodd" xlink:href="#path-5"></use>
                                <use stroke="#000000" mask="url(#mask-6)" stroke-width="4" xlink:href="#path-5"></use>
                            </g>
                            <path d="M67.5573355,66.0535117 C67.1018588,69.1629479 68.6121157,73.1492666 65.2674804,76.2257525 C67.4558253,79.7756473 65.2612333,82.8353218 65.2674804,86.3979933 C65.6091285,86.8228912 65.4241965,87.6986167 65.2674804,87.8511706 C64.6059945,88.967214 63.9534968,89.2572798 62.9776254,89.3043478 C62.4866385,89.2646878 61.7997717,88.9911501 60.6877703,87.8511706 C60.8844678,88.0773464 60.7212844,87.4791875 60.6877703,86.3979933 C63.2554234,82.7304187 62.6654793,78.3070036 62.9776254,73.319398 C62.7126748,70.7190109 62.7126748,67.5019818 62.9776254,64.6003344 C63.0821258,61.6427077 62.5546626,58.991256 60.6877703,55.8812709 C60.3128618,55.2031088 60.6091441,53.5978768 62.9776254,52.9749164 C62.4980455,52.0600654 63.163262,51.7394052 62.9776254,51.5217391 C64.0577473,51.5217391 64.6004959,51.7140615 65.2674804,51.5217391 C65.685993,53.7771563 67.6918029,55.4031547 67.5573355,57.3344482 C67.385032,60.1237953 67.5030208,62.7813412 67.5573355,66.0535117 Z" id="Antenna-Stick" fill="#000000"></path>
                            <g id="Antenna">
                                <use fill="#FCAD18" fill-rule="evenodd" xlink:href="#path-7"></use>
                                <use stroke="#000000" mask="url(#mask-8)" stroke-width="4" xlink:href="#path-7"></use>
                            </g>
                            <g id="Right-eye">
                                <use fill="#FFFFFF" fill-rule="evenodd" xlink:href="#path-9"></use>
                                <use stroke="#000000" mask="url(#mask-10)" stroke-width="4" xlink:href="#path-9"></use>
                            </g>
                            <g id="Left-eye-lopez">
                                <use fill="#FFFFFF" fill-rule="evenodd" xlink:href="#path-11"></use>
                                <use stroke="#000000" mask="url(#mask-12)" stroke-width="4" xlink:href="#path-11"></use>
                            </g>
                            <g id="Sparks" transform="translate(18.318841, 0.000000)" fill="#000000">
                                <path d="M15.6553271,13.9819175 C16.0213686,13.9819175 16.6178807,13.9819175 16.7534516,14.1582171 C19.4648699,18.2266703 23.61334,21.2780102 26.1485162,25.6312551 C27.4873777,27.4547203 29.0292396,29.119928 30.7443703,30.594768 C31.0965337,30.849813 31.3050511,31.2583391 31.3050511,31.6932504 C31.3050511,32.1281617 31.0965337,32.5366877 30.7443703,32.7917327 C29.7682597,33.6189849 29.1039622,32.9409094 28.4532218,32.4391335 C27.7419111,31.8810076 27.0960916,31.2440767 26.5281147,30.540522 C24.5487793,28.0858886 22.7999145,25.414271 20.6307798,23.1494987 C18.4616451,20.8847264 17.0110363,18.5521466 14.7605591,16.7077811 C13.9606907,16.0568286 14.5843169,14.3616398 15.6553271,13.9819175 Z" id="Spark-5"></path>
                                <path d="M83.5763568,40.6845319 C83.9998537,40.8163889 84.4161723,40.970296 84.8236092,41.1456233 C85.0291844,41.2379101 85.1831572,41.4167755 85.2438791,41.6338377 C85.2438791,42.0542445 85.2438791,42.7594431 85.1083082,42.8679352 C83.752599,43.5460107 82.2342047,44.61737 80.797153,44.5766855 C76.046715,44.6192924 71.3449574,45.5388017 66.9282481,47.2889876 C66.4953611,47.4744493 66.005426,47.4744493 65.572539,47.2889876 C65.0200999,46.9214493 64.5568793,46.4349091 64.2168298,45.865029 C64.0812589,45.6480448 64.3659578,45.0784614 64.5964284,44.7801082 C64.8268989,44.4817549 65.2742829,43.979979 65.6403244,43.952856 C71.2800746,43.5460107 76.6080116,41.5389071 82.1799764,40.8065855 C82.6815887,40.7523395 83.1289728,40.6845319 83.5763568,40.6845319 Z" id="Spark-4"></path>
                                <path d="M18.0142611,50.5437502 C14.9910297,50.326766 13.120151,51.3438793 11.0188018,50.5437502 C9.90712025,50.1504664 8.37516888,50.8014189 7.07368807,51.1133336 C5.13122567,51.7296358 3.05448334,51.7860363 1.08145352,51.2760718 C0.796754593,51.1811412 0.552726942,50.5437502 0.552726942,50.1640279 C0.552726942,49.7843056 0.878097144,49.1469146 1.09501061,49.1333531 C3.80642896,48.9434919 6.51784731,48.7807538 9.22926566,48.7400693 C11.0510154,48.7138492 12.8664057,48.5186312 14.6521024,48.1569243 C17.3461531,47.7811085 20.0686321,47.6494791 22.7863574,47.7636405 C23.0303851,47.7636405 23.4370978,48.3739085 23.4777691,48.7265078 C23.5184404,49.079107 23.2337414,49.7707441 23.016828,49.8114286 C21.0781638,50.1775894 19.0174859,50.4216966 18.0142611,50.5437502 Z" id="Spark-3"></path>
                                <path d="M62.467965,31.0287364 C62.1561518,30.7168216 61.6409824,30.4184684 61.6680965,30.1879227 C61.6688655,29.3159761 61.887924,28.4581059 62.3052798,27.6926047 C65.0166982,24.2886656 67.8094591,21.0203415 70.4395349,17.6164023 C73.0696107,14.2124632 75.5912298,10.6864704 78.2213056,7.26896971 C78.8075037,6.58953996 79.5214861,6.03199136 80.3226548,5.62802692 C80.5666824,5.49241181 81.2309799,5.79076505 81.4885647,6.07555677 C81.7461494,6.36034849 81.9630629,7.05198554 81.8003778,7.28253122 C80.8784955,8.63868228 79.766814,9.73716465 78.8449318,11.0390697 C75.4294874,16.1530644 71.5736317,20.9585729 67.3214038,25.4007094 C66.1554304,26.7890874 65.0691185,28.2425033 64.0677018,29.7539544 C63.5880478,30.242137 63.0508646,30.6702022 62.467965,31.0287364 Z" id="spark2"></path>
                                <path d="M49.0057728,11.9748139 C48.7753023,14.3073937 49.6429562,17.3994182 48.0161051,20.1117203 C48.9786587,22.5392307 47.7178491,24.9124951 47.8805342,27.326444 C47.9177176,28.0054896 47.8114727,28.684754 47.5687211,29.319986 C47.3414096,29.6687531 46.9665447,29.8937453 46.5519392,29.930254 C46.1238237,29.8994914 45.7292136,29.6873193 45.4673719,29.347109 C45.2033646,28.9785192 45.1096145,28.5145518 45.2097872,28.072327 C46.5654963,24.831126 46.226569,21.4000638 46.2536832,18.0232477 L46.2536832,10.5101708 C46.4659356,8.47425096 46.162904,6.41762827 45.3724723,4.52954456 C44.8749727,3.47931739 45.0451891,2.23420457 45.8062992,1.35615106 C46.1303771,1.04138715 46.5125489,0.792664174 46.9315378,0.62382949 C47.0264375,0.62382949 47.3382506,0.773006107 47.3924789,0.922182724 C47.9618768,2.37326436 49.1142296,3.63448485 49.032887,5.31611217 C48.9379874,7.29609273 49.0057728,9.35744235 49.0057728,11.9748139 Z" id="spark"></path>
                            </g>
                            <g id="mouth" transform="translate(59.875247, 152.936660) rotate(-112.000000) translate(-59.875247, -152.936660) ">
                                <use fill="#003959" fill-rule="evenodd" xlink:href="#path-13"></use>
                                <use stroke="#000000" mask="url(#mask-14)" stroke-width="4" xlink:href="#path-13"></use>
                            </g>
                        </g>
                        <g id="Upper-body" transform="translate(0.000000, 179.753623)">
                            <g id="Body">
                                <use fill="#209BFF" fill-rule="evenodd" xlink:href="#path-15"></use>
                                <use stroke="#000000" mask="url(#mask-16)" stroke-width="4" xlink:href="#path-15"></use>
                            </g>
                            <g id="Lightning">
                                <use fill="#FBAD1C" fill-rule="evenodd" xlink:href="#path-17"></use>
                                <use stroke="#000000" mask="url(#mask-18)" stroke-width="6" xlink:href="#path-17"></use>
                            </g>
                            <g id="Left-arm" transform="translate(14.884058, 12.594203)">
                                <g id="left-shoulder">
                                    <use fill="#209BFF" fill-rule="evenodd" xlink:href="#path-19"></use>
                                    <use stroke="#000000" mask="url(#mask-20)" stroke-width="4" xlink:href="#path-19"></use>
                                </g>
                            </g>
                            <g id="Right-arm" transform="translate(234.710145, 1.144928)">
                                <g id="right-upper-arm">
                                    <use fill="#FBAD1C" fill-rule="evenodd" xlink:href="#path-21"></use>
                                    <use stroke="#000000" mask="url(#mask-22)" stroke-width="4" xlink:href="#path-21"></use>
                                </g>
                                <g id="right-shoulder">
                                    <use fill="#209BFF" fill-rule="evenodd" xlink:href="#path-23"></use>
                                    <use stroke="#000000" mask="url(#mask-24)" stroke-width="4" xlink:href="#path-23"></use>
                                </g>
                            </g>
                        </g>
                    </g>
                </g>
            </g>
        </g>
    </g>
</svg>