<?xml version="1.0" encoding="UTF-8"?>
<svg width="217px" height="217px" viewBox="0 0 217 217" version="1.1" xmlns="http://www.w3.org/2000/svg" xmlns:xlink="http://www.w3.org/1999/xlink">
    <!-- Generator: Sketch 41.2 (35397) - http://www.bohemiancoding.com/sketch -->
    <title>Legs</title>
    <desc>Created with Sketch.</desc>
    <defs>
        <polygon id="path-1" points="152.5 42 230.635299 74.3647007 263 152.5 230.635299 230.635299 152.5 263 74.3647007 230.635299 42 152.5 74.3647007 74.3647007"></polygon>
        <filter x="-50%" y="-50%" width="200%" height="200%" filterUnits="objectBoundingBox" id="filter-3">
            <feGaussianBlur stdDeviation="0" in="SourceGraphic"></feGaussianBlur>
        </filter>
        <path d="M30.940469,107.925399 C27.4033552,107.925399 24.6939103,107.925399 22.0313147,108.979259 C21.14118,109.338352 20.1104978,108.549908 19.134473,109.439834 C18.4005024,110.103376 17.2683136,110.32976 16.3157134,110.759111 C16.1985904,110.813755 16.0892757,110.899625 15.9721527,110.95427 C13.0050373,112.273546 10.8265499,114.513974 8.81984294,116.97298 C6.61793099,119.68179 5.69656358,122.92924 4.73615518,126.184496 C4.51752562,126.965132 4.93916833,127.644287 5.6184816,127.581836 C7.5549148,127.417902 9.46792341,127.800414 11.459014,127.183711 C13.2861324,126.621652 15.4411952,127.183711 17.3073546,126.676297 C19.0912609,126.217355 20.9324281,126.020133 22.7730935,126.090819 C24.6314447,126.15327 26.294591,125.216506 28.184175,125.364827 C30.2875868,125.445034 32.3938294,125.408548 34.4931993,125.255538 C35.2789251,125.251607 36.0627763,125.178465 36.8356588,125.036959 C41.0166803,124.067164 45.2544466,123.360601 49.5239813,122.921433 C50.6926565,122.860861 51.8173297,122.456182 52.7565754,121.758284 C52.3661655,120.798101 52.0538375,119.798886 51.5853456,118.885541 C50.023706,115.762993 47.4157677,113.49134 44.7219392,111.391427 C43.121185,110.039839 41.1932242,109.132617 39.1312692,108.76068 C36.132921,108.354749 33.1892302,107.511661 30.940469,107.925399 Z" id="path-4"></path>
        <mask id="mask-5" maskContentUnits="userSpaceOnUse" maskUnits="objectBoundingBox" x="-2" y="-2" width="52.0784774" height="23.7717714">
            <rect x="2.67809798" y="105.814058" width="52.0784774" height="23.7717714" fill="white"></rect>
            <use xlink:href="#path-4" fill="black"></use>
        </mask>
        <path d="M29.24609,74.4907208 L29.363213,74.4907208 C29.1836244,71.6335898 29.1367752,68.760846 28.7775981,65.903715 C28.5511603,64.1004438 28.37938,62.3049789 28.3169144,60.486095 C28.3169144,59.3151397 28.1919832,58.1441843 28.1295176,56.9654226 C26.8814146,56.9803572 25.6471926,57.2292621 24.4908972,57.6992213 C22.9292575,58.4798582 21.3676178,57.9412187 19.8059781,57.9880569 C19.4386375,58.0109663 19.1020218,58.2008075 18.8924189,58.5032773 C18.612332,59.2315397 18.3801932,59.977339 18.1974892,60.7358988 C19.1813222,62.2971726 18.6737893,64.0848311 18.8533779,65.7632004 C19.0329665,67.4415697 18.9080353,69.1823899 18.9158435,70.8997911 C18.8593459,71.292276 18.8752243,71.6917871 18.9626927,72.0785528 C19.8762519,74.2253042 19.4936502,76.4735385 19.5561158,78.6905472 C19.6263895,81.0324579 19.7981699,83.4368195 19.6732387,85.8021493 C19.5483076,88.1674791 20.6804963,90.407907 20.5555652,92.8278813 C20.5555652,93.5226481 21.1724128,93.8973538 21.9454245,93.7568392 C22.3392517,93.7299054 22.7278061,93.6511628 23.1010378,93.5226481 C24.986879,92.5985612 27.0600307,92.1204591 29.1601998,92.1253081 C29.5062236,92.0263593 29.7755614,91.7541256 29.8707459,91.4071222 C29.9254033,89.6975274 29.8707459,87.9801262 29.8707459,86.2705314 C29.8707459,85.224478 30.0425262,84.0769418 29.6911573,83.1479839 C29.303693,81.8853544 29.1502149,80.5625776 29.2382818,79.2447994 C29.2304736,77.6132683 29.24609,76.0519946 29.24609,74.4907208 Z" id="path-6"></path>
        <mask id="mask-7" maskContentUnits="userSpaceOnUse" maskUnits="objectBoundingBox" x="-2" y="-2" width="15.7152421" height="40.8206733">
            <rect x="16.1974892" y="54.9654226" width="15.7152421" height="40.8206733" fill="white"></rect>
            <use xlink:href="#path-6" fill="black"></use>
        </mask>
        <path d="M12.6458602,46.7390794 C12.247642,50.4236855 13.9732539,52.7968216 16.8310545,54.6313183 C18.5566664,55.7320163 20.5946061,55.6383399 22.4139164,56.3253004 C22.6247377,56.4033641 22.9292575,56.2784622 23.1947362,56.2238176 C26.8567813,55.4431807 29.5584179,53.1871401 31.6588233,50.2675581 C32.4497991,49.0712626 32.9645695,47.7139739 33.1658056,46.2941163 C33.5874483,43.7726592 32.1038906,39.8928939 30.2533476,38.0037526 C29.4100622,37.1372456 28.4965029,36.4424788 27.1300682,36.637638 C26.611311,36.7160827 26.0809438,36.637226 25.6074695,36.4112533 C23.4758314,35.2715235 21.5550146,35.8804202 19.6498141,36.9655055 C18.9870864,37.3902617 18.298643,37.7735097 17.5884498,38.1130417 C16.9625439,38.3370431 16.5338623,38.9167069 16.5031102,39.5806391 C16.4589605,40.1260969 16.0258218,40.5591341 15.4802362,40.6032734 C14.8326099,40.6855211 14.2695005,41.0872289 13.9810621,41.672746 C12.9581881,43.2652452 12.286683,44.9280018 12.6458602,46.7390794 Z" id="path-8"></path>
        <mask id="mask-9" maskContentUnits="userSpaceOnUse" maskUnits="objectBoundingBox" x="-2" y="-2" width="24.6899891" height="24.5506545">
            <rect x="10.54804" y="33.7996273" width="24.6899891" height="24.5506545" fill="white"></rect>
            <use xlink:href="#path-8" fill="black"></use>
        </mask>
        <path d="M8.65587078,134.935435 C12.3491486,134.506085 15.394346,135.255496 18.3692696,134.388989 C19.563924,135.325754 20.586798,134.084541 21.7189867,134.131379 C22.8511755,134.178217 24.0614462,134.170411 25.2795252,134.131379 C27.7625323,134.045509 30.2533476,134.131379 32.6816973,133.350742 C34.0406985,132.893292 35.4576274,132.630473 36.8903162,132.570105 C38.8521894,132.459039 40.78401,132.037458 42.6137257,131.321086 C46.0961822,130.095486 49.7972682,130.150131 53.3499985,129.353881 C58.7454636,129.478783 57.5664256,129.11969 57.5898502,124.802768 C57.5898502,124.115808 56.8871124,123.748908 56.2077991,123.811359 C54.9350628,123.920649 54.0683527,125.46631 52.6004114,124.794962 C50.8435668,125.575599 48.9852156,125.310182 47.1346725,125.263344 C45.2841295,125.216506 43.5741341,126.184496 41.7313992,126.168883 C38.8423658,126.168883 36.0782636,127.37887 33.142381,127.027583 C31.9711512,127.63648 30.6359493,127.082228 29.4491031,127.581836 C28.1763668,127.011971 26.9270551,127.652093 25.6621269,127.667706 C24.3971988,127.683318 23.0307641,127.737963 21.7111785,127.784801 C21.1880292,127.784801 20.547757,127.644287 20.1495388,127.886284 C18.4785844,128.901112 16.5499594,128.417117 14.7696901,128.893306 C12.9894209,129.369494 11.1232615,129.111884 9.30395125,129.299237 C7.88285914,129.439751 6.44615063,129.236786 5.01725032,129.791038 C4.23643048,130.095486 3.22917288,129.791038 2.32342187,129.791038 C1.56430317,129.624162 0.810086396,130.091114 0.621234613,130.844898 C0.366433777,131.851311 0.163156409,132.870065 0.0121951367,133.897188 C0.0727106709,134.242475 0.300993739,134.535077 0.621234613,134.677825 C1.25963794,134.835264 1.91586117,134.908744 2.57328422,134.896403 C4.90012734,134.943241 7.10203929,134.935435 8.65587078,134.935435 Z" id="path-10"></path>
        <mask id="mask-11" maskContentUnits="userSpaceOnUse" maskUnits="objectBoundingBox" x="-2" y="-2" width="61.6712621" height="15.131419">
            <rect x="-1.98780486" y="121.804504" width="61.6712621" height="15.131419" fill="white"></rect>
            <use xlink:href="#path-10" fill="black"></use>
        </mask>
        <path d="M14.8321557,16.1537261 L14.9805115,16.1537261 L14.9805115,22.0631473 C14.9310389,22.5934865 15.0058959,23.1280544 15.199141,23.6244211 C15.7379067,24.6236363 15.6051674,25.6696897 15.6364002,26.7079368 C15.7144821,28.80785 15.7691395,30.9077633 15.7691395,33.0154829 C15.7791893,33.9286511 15.9869664,34.8288074 16.378179,35.6540355 C16.6280414,36.2239005 16.7295479,36.4346724 17.4088612,36.0755795 C19.6420059,34.8187541 21.7658359,33.124772 24.6314447,33.8585707 C24.8489648,33.8334295 25.038002,33.6975908 25.1311694,33.4994777 C25.2233374,32.7222203 25.2702656,31.9402662 25.271717,31.1575671 C25.271717,28.5424335 24.8110333,25.9741381 24.5533627,23.3511982 C24.2800758,20.6111627 24.3971988,17.8399017 24.3347332,15.0764471 C24.3647202,14.6851861 24.3032363,14.2923158 24.1551446,13.9289109 C23.5226806,12.8204065 23.7256937,11.6260321 23.7100773,10.4628831 C23.6632281,7.57452664 23.6476117,4.67836379 23.5929543,1.7900073 C23.5525906,1.40651952 23.4767876,1.0275934 23.3665166,0.658083806 C23.1322706,0.868855766 22.8902165,1.07182136 22.6793951,1.29820605 C21.2426866,2.85947983 19.8294027,4.42075361 18.384886,5.91957644 C17.3151628,7.04369356 15.5661264,7.68381581 15.0664017,9.10457495 C14.566677,10.5253341 14.8711967,12.2271225 14.8399639,13.7883963 C14.8243475,14.5768395 14.8321557,15.3652828 14.8321557,16.1537261 Z" id="path-12"></path>
        <mask id="mask-13" maskContentUnits="userSpaceOnUse" maskUnits="objectBoundingBox" x="-2" y="-2" width="14.4953667" height="39.5944502">
            <rect x="12.7763503" y="-1.34191619" width="14.4953667" height="39.5944502" fill="white"></rect>
            <use xlink:href="#path-12" fill="black"></use>
        </mask>
        <path d="M37.9522312,98.6045943 L37.9522312,97.8239574 C37.866341,96.208039 37.1714114,95.3493385 35.5473061,95.3025002 C32.1351234,95.2088238 28.7073243,95.3493385 25.3029498,95.1775983 C23.4491532,95.1465124 21.6524116,95.8187379 20.27447,97.0589332 C19.134473,97.964472 17.9320105,99.1978783 17.9320105,100.962118 C16.9247529,102.133073 17.6118744,103.202546 18.2052974,104.217374 C18.5913658,104.915431 19.2456365,105.425755 20.0167995,105.630326 C21.7814523,106.106515 23.5070642,106.668573 25.3732236,105.942581 C26.1214349,105.725542 26.8976375,105.620319 27.6766421,105.630326 C29.1211588,105.53665 30.5734837,105.575682 32.0101922,105.403942 C35.1178552,105.02143 37.9366148,101.758367 37.9522312,98.6045943 Z" id="path-14"></path>
        <mask id="mask-15" maskContentUnits="userSpaceOnUse" maskUnits="objectBoundingBox" x="-2" y="-2" width="24.532969" height="15.1139046">
            <rect x="15.4192622" y="93.1765664" width="24.532969" height="15.1139046" fill="white"></rect>
            <use xlink:href="#path-14" fill="black"></use>
        </mask>
        <path d="M50.2669741,133.726415 C50.5714938,133.86693 50.6886168,133.968413 50.8057398,133.968413 C52.1175171,133.968413 52.8046386,133.125325 52.3673795,132.009014 C51.9301204,130.892703 51.4303957,129.838843 51.0868349,128.714726 C49.5720444,123.820133 45.5352059,121.236225 41.7169968,118.47277 C40.5848081,117.692133 37.078927,117.44233 34.9316724,117.309621 C32.3393506,117.153494 29.8094943,117.754584 27.2327888,117.606263 C26.1910106,117.600899 25.158552,117.802566 24.1953996,118.199547 C19.5859132,119.7802 15.4187197,122.434591 12.0380347,125.943465 C8.95991929,128.993283 6.66658328,132.743188 5.35421685,136.872382 C5.11216269,137.653019 5.46353162,138.191658 6.24435146,138.191658 C9.0084537,138.191658 11.7803641,138.254109 14.5366582,138.113594 C17.2929522,137.97308 20.2678758,138.215077 23.1256764,137.496891 C24.9918358,137.028509 27.0297756,137.278313 29.0286744,137.278313 C31.1290798,137.278313 33.0967458,136.443031 35.2361922,136.544514 C37.3313705,136.691967 39.4351226,136.426739 41.4280935,135.763877 C42.5372339,135.383125 43.6880547,135.136765 44.8558926,135.030079 C46.4175323,134.873951 47.979172,134.749049 49.3690313,133.86693 C49.6552552,133.757947 49.9611309,133.710082 50.2669741,133.726415 L50.2669741,133.726415 Z" id="path-16"></path>
        <mask id="mask-17" maskContentUnits="userSpaceOnUse" maskUnits="objectBoundingBox" x="-2" y="-2" width="51.2201342" height="24.9219841">
            <rect x="3.27871405" y="115.283504" width="51.2201342" height="24.9219841" fill="white"></rect>
            <use xlink:href="#path-16" fill="black"></use>
        </mask>
        <path d="M33.7135935,94.4759923 L33.7135935,94.4759923 L33.7135935,90.5181633 C33.7135935,88.6758602 33.9634558,86.7398807 33.4871557,85.0146732 C33.121656,83.3569343 32.959094,81.6609189 33.0030474,79.9639525 C32.9171572,77.3332062 33.0030474,74.6868472 32.8000343,72.0639072 C32.6126375,69.8625112 32.0192144,67.6923406 32.1363374,65.4441064 C32.1336353,65.1096032 31.956997,64.8006162 31.6700864,64.6285101 C31.3831757,64.4564041 31.0273523,64.4459889 30.7308617,64.6010186 C28.1775808,65.7017166 25.5696425,65.2801727 22.9695125,65.0069497 C22.4307468,64.9523052 21.9544467,64.6244377 21.9388303,65.4831382 C21.9388303,66.6697063 21.6343105,67.9499508 21.9934877,69.0194234 C22.7274583,71.2208194 22.399514,73.4378281 22.5869107,75.6470305 C22.8601977,78.9022864 22.2355418,82.2199931 23.3208814,85.412798 C23.0788272,89.5033353 24.1485504,93.5001962 24.1485504,97.5673144 C24.1485504,99.1285882 24.2266324,100.689862 24.328139,102.30578 C24.3396858,102.834944 24.5745729,103.334535 24.9747432,103.68107 C25.3749135,104.027605 25.9030252,104.188746 26.4285444,104.124664 L32.7531851,104.124664 C33.0165481,104.160613 33.2820872,104.075946 33.4760028,103.894192 C33.6699185,103.712439 33.7715437,103.452971 33.7526345,103.1879 C33.7214017,100.276124 33.7135935,97.3721552 33.7135935,94.4759923 Z" id="path-18"></path>
        <mask id="mask-19" maskContentUnits="userSpaceOnUse" maskUnits="objectBoundingBox" x="-2" y="-2" width="15.960756" height="43.6467791">
            <rect x="19.8183374" y="62.4916768" width="15.960756" height="43.6467791" fill="white"></rect>
            <use xlink:href="#path-18" fill="black"></use>
        </mask>
        <path d="M31.4648323,144.304045 C35.0800282,145.123714 38.7811142,143.710761 42.5758987,143.640504 C42.9659944,143.604465 43.3524877,143.536584 43.731512,143.437538 L46.800134,142.867673 C47.918921,142.532587 49.0709422,142.32056 50.2357413,142.235357 C52.1331335,142.297808 53.8197044,141.45472 55.6390146,141.251755 C56.53666,141.108171 57.3711811,140.70052 58.0361315,140.080799 C58.3953087,139.745126 58.2079119,138.847393 58.3172267,138.207271 C58.4265414,137.567149 58.6139382,136.950445 58.762294,136.31813 C58.9731153,135.404784 58.6217464,134.944209 57.817502,135.248657 C56.3096098,135.748914 54.7151643,135.934889 53.1325829,135.795103 C51.3679301,135.724846 49.8062904,136.716254 48.1119113,136.57574 C46.4175323,136.435225 44.7621942,137.169024 43.1068562,137.473472 C41.8384054,137.746482 40.5559359,137.949752 39.2652225,138.082369 C35.0878364,138.394624 30.9572994,139.268937 26.7721051,139.019133 C26.6444639,138.9831 26.5093364,138.9831 26.3816952,139.019133 C25.0543014,139.854415 23.5707437,139.581192 22.1418434,139.612417 C19.1122624,139.682675 16.0748733,139.698287 13.0452923,139.760738 C12.1293521,139.680087 11.2063901,139.748634 10.3124228,139.963704 C8.18078467,140.744341 5.93202353,140.525762 3.76134437,140.791179 C0.458476442,141.19711 0.427243648,140.923887 0.450668243,143.913726 L0.450668243,144.694363 C0.450668243,145.475 0.864502759,146.037059 1.56724062,146.037059 C4.86230035,146.037059 8.15736008,145.982414 11.4524198,145.943382 C13.1702235,145.084682 15.0598075,145.318873 16.8713095,145.209584 C18.6828115,145.100295 20.431848,144.639719 22.2355418,145.154939 C22.6158358,145.280598 23.0264776,145.280598 23.4067716,145.154939 C25.9522443,144.046435 28.6538809,144.920748 31.4648323,144.304045 Z" id="path-20"></path>
        <mask id="mask-21" maskContentUnits="userSpaceOnUse" maskUnits="objectBoundingBox" x="-2" y="-2" width="62.3746726" height="14.8818936">
            <rect x="-1.55234403" y="133.155165" width="62.3746726" height="14.8818936" fill="white"></rect>
            <use xlink:href="#path-20" fill="black"></use>
        </mask>
        <path d="M28.8412777,44.6401333 L28.8412777,44.6401333 L25.2807392,44.6401333 C24.3583415,44.6693333 23.4594839,44.9383893 22.6728009,45.4207702 C19.4245904,47.216235 17.9878819,50.2216871 17.1524046,53.6252639 C17.1162309,54.0128439 17.161443,54.4037047 17.285144,54.7728001 C17.4158047,55.5407886 17.5957651,56.2995744 17.8239097,57.0444535 C18.2065114,58.1529579 18.4329492,59.3863641 19.3855494,60.167001 C20.7207513,61.1974417 22.1730762,62.0795614 23.5863601,63.0085193 C24.0927906,63.4273306 24.7957904,63.5155653 25.390054,63.234904 C26.0693672,63.8984454 26.8892281,62.9304556 27.5841577,63.4300632 C28.936014,62.997153 30.3095166,62.6349668 31.6990783,62.3449779 C35.3376987,61.7907258 38.0002944,57.3176764 37.4693369,53.6877148 C37.2394188,51.6182879 36.6418269,49.6065144 35.7046841,47.7470681 C34.6115363,45.7330249 33.2294852,44.421555 30.7855191,44.6245206 C30.1374386,44.6947779 29.4971663,44.6401333 28.8412777,44.6401333 Z" id="path-22"></path>
        <mask id="mask-23" maskContentUnits="userSpaceOnUse" maskUnits="objectBoundingBox" x="-2" y="-2" width="24.3965628" height="22.8727562">
            <rect x="15.140314" y="42.6038683" width="24.3965628" height="22.8727562" fill="white"></rect>
            <use xlink:href="#path-22" fill="black"></use>
        </mask>
        <path d="M29.3097696,115.108225 L29.3097696,115.108225 C30.4888075,115.108225 31.6522291,115.045774 32.8468835,115.108225 C34.2809718,115.163896 35.7117612,114.933006 37.0555024,114.429071 C38.7264569,113.867013 39.241798,113.250309 39.3120717,111.689036 C39.4129391,110.375776 39.0959138,109.064255 38.4063207,107.941979 C38.150478,107.477665 37.646588,107.205933 37.117968,107.247212 C36.5996803,107.255603 36.087926,107.364292 35.6109857,107.567273 C35.111261,107.80927 34.7286593,107.996623 34.2133182,107.606305 C33.5912468,107.130383 32.9392193,106.694931 32.2612686,106.302641 C31.8252158,106.033049 31.3436392,105.845225 30.8401765,105.748389 C27.7168971,105.287813 24.9762195,106.529026 22.1418434,107.434565 C22.020119,107.482562 21.9107193,107.557257 21.8217073,107.653143 C19.7525347,109.690605 19.8462331,113.117601 22.7743075,114.429071 C23.5780144,114.863792 24.4762825,115.094338 25.390054,115.100419 C26.6862149,115.061387 27.9979922,115.108225 29.3097696,115.108225 Z" id="path-24"></path>
        <mask id="mask-25" maskContentUnits="userSpaceOnUse" maskUnits="objectBoundingBox" x="-2" y="-2" width="22.9270073" height="13.4672341">
            <rect x="18.4034047" y="103.649115" width="22.9270073" height="13.4672341" fill="white"></rect>
            <use xlink:href="#path-24" fill="black"></use>
        </mask>
        <path d="M35.3767397,42.0562252 C33.7760591,37.989107 34.5959199,33.5941213 34.283592,29.2850057 C34.0961952,26.943095 33.7994837,24.6480226 33.7682509,22.3217246 C33.7682509,20.4638088 34.1977018,18.6293122 34.1820854,16.7870091 C34.1820854,14.5387749 33.0889376,14.0938118 31.4414077,12.8838247 C27.7793627,10.096951 25.7882721,5.07745576 23.6332093,1.1274331 C22.9538961,-0.0981668159 21.2907498,1.1274331 21.7202007,2.31400117 C21.3039525,2.47363023 20.9881416,2.82123055 20.8691071,3.25076544 C20.392807,5.13990671 20.7519841,6.93537156 20.8144497,8.8557383 C20.8847235,11.283519 20.5411628,13.6722679 20.7285595,16.0922423 C20.9159563,18.5122166 20.4552726,21.1039311 20.7285595,23.5863564 C21.0799284,26.4122619 21.5093794,29.1132656 21.6967761,31.9703966 C21.8323299,34.8768893 22.1190179,37.7743648 22.5556779,40.6510788 C22.7274583,41.6581004 22.7430747,42.6573156 23.6878667,43.2740187 C24.6326587,43.8907219 26.139641,43.5472417 27.2093642,43.3598888 C29.7860697,42.9227321 31.8942832,43.8126582 34.3772903,43.6331117 C34.7331703,43.5828909 35.0490792,43.3790631 35.2414526,43.0755451 C35.4338259,42.772027 35.4832824,42.3993977 35.3767397,42.0562252 Z" id="path-26"></path>
        <mask id="mask-27" maskContentUnits="userSpaceOnUse" maskUnits="objectBoundingBox" x="-2" y="-2" width="18.8059613" height="47.0385975">
            <rect x="18.6258849" y="-1.38121262" width="18.8059613" height="47.0385975" fill="white"></rect>
            <use xlink:href="#path-26" fill="black"></use>
        </mask>
        <path d="M59.1251959,28.3790524 C60.6868355,28.3790524 62.396831,28.7381454 63.8101149,28.285376 C65.6450415,27.7077047 67.4565436,27.9340894 69.2758538,27.7389302 C71.095164,27.5437709 72.8363923,26.9582933 74.7415927,26.9582933 C76.8295988,26.8432151 78.9024366,26.5348449 80.933494,26.0371417 C81.9217331,25.7010841 82.8802508,25.2832996 83.7991028,24.7881227 C85.2514277,24.202645 86.7271772,23.6640056 88.1873104,23.101947 C92.8859011,21.3665004 97.1039873,18.5381549 100.493031,14.8506151 C102.7496,12.3525771 104.272199,9.51105879 104.05357,5.97477368 C104.066455,5.06048389 104.157886,4.1489912 104.326856,3.25035094 C104.48302,1.87643002 103.803707,0.908440274 102.624669,0.775732003 L98.4550913,0.377607189 C97.814819,0.315156238 96.8934516,-0.0517431 96.5733154,0.237092549 C95.4723595,1.16605045 94.3401707,0.237092549 93.2079819,0.541540936 C91.9209401,0.778295767 90.6085448,0.846524331 89.3038827,0.744506527 C85.8760836,0.806957478 82.4404763,0.838182954 79.0126772,0.908440274 C78.3649206,0.952662541 77.7207017,1.0387121 77.0840522,1.16605045 C76.311483,1.33444947 75.5291364,1.45438118 74.7415927,1.52514342 C69.361744,1.67346443 64.0053199,1.52514342 58.6098548,2.21991025 C53.8234291,2.82880702 48.9120723,2.21991025 44.0866057,3.04738535 C42.7741241,3.18483998 41.4521981,3.20834699 40.1356573,3.11764267 L35.7864908,3.11764267 L31.8277342,3.11764267 C30.3754093,3.11764267 28.9308926,3.11764267 27.4785677,3.15667451 C26.17456,3.0724616 24.8652363,3.13267638 23.5744685,3.336221 C22.1143354,3.70312034 20.7713253,3.15667451 19.3736578,3.26596368 C18.5928379,3.32841463 17.8120181,3.26596368 17.0311982,3.32060826 C16.7697163,3.32485119 16.5225903,3.44092452 16.3523977,3.639436 C16.1822052,3.83794748 16.1052663,4.09986131 16.1410636,4.35885532 C16.3217501,5.78032983 16.6649518,7.17638827 17.1639376,8.51964994 C19.1003708,12.5008981 20.6542023,16.7865946 24.6129589,19.3939218 C29.2119878,23.9528412 35.1930677,25.4594704 41.2053805,26.8958423 C44.8752338,26.9895187 48.4591968,28.1604741 52.1368583,27.840413 C52.5287577,27.7602404 52.934664,27.7817403 53.3158962,27.9028639 C55.1664393,28.8396282 57.1731463,28.3322142 59.1251959,28.3790524 Z" id="path-28"></path>
        <mask id="mask-29" maskContentUnits="userSpaceOnUse" maskUnits="objectBoundingBox" x="-2" y="-2" width="92.2165718" height="32.3865322">
            <rect x="14.1324589" y="-1.87239701" width="92.2165718" height="32.3865322" fill="white"></rect>
            <use xlink:href="#path-28" fill="black"></use>
        </mask>
        <path d="M116.386219,0.830652916 C114.994916,1.10679348 113.590126,1.31003636 112.1776,1.43954969 C109.944455,1.57225796 107.687886,1.52541975 105.446933,1.50980701 C103.088652,1.5994971 100.740008,1.86039641 98.4195543,2.2904439 C95.0671976,2.86789836 91.6706068,3.15001055 88.2688964,3.13353174 C87.733509,3.08880843 87.1956344,3.18291442 86.7072567,3.40675465 C85.720795,3.81779857 84.6465879,3.97352211 83.5839773,3.85952405 C80.1796028,3.93758774 76.7361873,3.56288203 73.4333194,4.64016094 C69.599494,4.32790618 65.8749833,5.46763604 62.0567743,5.48324878 C56.848706,5.48324878 51.6874868,6.40440031 46.4403775,6.33414299 C43.7137797,6.30323343 41.0068554,6.79890066 38.4682069,7.79393397 C37.4531411,8.18425241 37.0002656,8.62140907 37.3438263,9.43327144 C37.8950276,10.9296727 38.1186903,12.5268888 37.999715,14.1170928 C37.960674,15.857913 38.6790283,17.4582187 38.7024529,19.1600071 C38.7024529,21.7985598 38.6243709,24.4449188 38.7024529,27.0834715 C38.7961512,29.2770612 38.1090298,31.57994 39.4442317,33.6486277 C39.5681118,33.8941029 39.5681118,34.1837894 39.4442317,34.4292646 C38.4135495,36.1544722 38.7805348,38.0514198 38.9601234,39.8390783 C39.0242759,40.8366231 39.175815,41.8266208 39.4129989,42.7976921 C39.5845626,43.8291787 39.6317489,44.8775162 39.5535465,45.9202396 C39.5535465,46.9740994 39.5535465,48.0357656 39.6472449,49.081819 C39.7409432,50.1278725 40.1547778,51.1192813 40.2094351,52.149722 C40.4202565,56.0529065 39.9595728,60.041961 41.0527206,63.8983072 C40.3187499,65.5532574 41.2088845,67.1925949 41.1151862,68.8553514 C40.8832053,71.2210252 40.964593,73.606964 41.3572403,75.9513408 C41.702732,77.7519166 41.8675217,79.5824838 41.8491568,81.415799 C41.9194306,85.2409197 41.9506634,89.0660405 42.0053208,92.8989676 C41.9229262,93.4204783 41.9575991,93.9537827 42.1068274,94.4602414 C42.8876472,95.8341623 42.6065521,97.2939533 42.6299767,98.7225188 C42.7080586,102.813056 42.7314832,106.903593 42.7939488,110.994131 C42.7751393,111.644449 42.8514235,112.294027 43.0203866,112.922304 C43.6379977,114.769454 44.0568033,116.67719 44.2696983,118.613147 C44.3321639,119.198624 44.6288754,119.627975 45.2457231,119.620168 C48.8062616,119.620168 52.3668001,119.557717 55.9273385,119.526492 C57.6997996,118.675598 59.4332196,118.964433 61.2759545,119.464041 C62.5096498,119.799715 63.8995091,119.549911 65.2190947,119.549911 C66.6714196,119.549911 68.225251,119.854359 69.5448366,119.440622 C70.8644221,119.026884 72.1215421,119.604556 73.2771554,119.300107 C74.3068571,119.092472 75.35105,118.964589 76.4004348,118.917595 C80.1796028,118.511664 84.044661,119.284494 87.7769799,118.136958 C88.1714555,118.094499 88.5693504,118.094499 88.963826,118.136958 C94.4295649,117.754446 99.981194,118.222828 105.509398,117.473417 C110.561303,116.786456 115.753755,117.606125 120.821276,116.560072 C124.217842,116.716199 127.653449,116.138528 131.018783,117.090905 C131.273046,117.186048 131.55684,117.159979 131.789505,117.020108 C132.022171,116.880238 132.17827,116.641858 132.213437,116.372719 C132.299327,114.538222 133.095763,112.836434 133.033298,110.955099 C132.939599,108.058936 133.095763,105.154967 133.142613,102.250998 C133.142613,101.470361 132.939599,100.564822 133.236311,99.9090869 C134.017131,98.1214284 133.736036,96.2869317 133.775077,94.4446287 C133.853159,90.3540914 133.962473,86.2635541 133.884391,82.1730168 C133.84535,79.9638144 134.181103,77.6999674 133.228503,75.5454096 C133.061212,75.0436269 133.100544,74.4959115 133.337818,74.0231676 C133.740551,73.0346911 133.893414,71.9622193 133.782885,70.9006201 C133.821926,68.9256088 133.900008,66.9505974 133.900008,64.9677797 L133.900008,29.7142178 C133.900008,25.1006538 133.829734,20.4870898 133.900008,15.8735258 C133.970282,11.2599618 133.337818,6.66981685 134.524664,2.12651015 C134.599475,1.8697795 134.569082,1.59384247 134.440185,1.35953902 C134.311288,1.12523558 134.094472,0.951806803 133.837542,0.87749113 C133.228503,0.651106432 132.642888,0.143692454 132.049465,0.135886085 C129.956868,0.135886085 127.809613,-0.316883311 125.802906,0.440334472 C124.694142,0.861878392 123.460447,0.393496258 122.414148,1.28342231 C121.094562,2.43876491 120.024839,0.588655481 118.736487,0.838459285 C117.953828,0.890247496 117.168516,0.887639099 116.386219,0.830652916 L116.386219,0.830652916 Z" id="path-30"></path>
        <mask id="mask-31" maskContentUnits="userSpaceOnUse" maskUnits="objectBoundingBox" x="-2" y="-2" width="101.334665" height="123.656246">
            <rect x="35.2302044" y="-1.99840087" width="101.334665" height="123.656246" fill="white"></rect>
            <use xlink:href="#path-30" fill="black"></use>
        </mask>
        <path d="M15.7697741,26.3334383 C15.6892797,28.1696646 15.9541358,30.0046872 16.550594,31.743252 C16.8238809,32.7034354 17.3314138,33.0625283 18.2762058,32.7893054 C22.0787984,31.7042201 25.6315287,30.2522355 28.317549,27.067237 C29.497987,25.6702029 30.351618,24.0273483 30.8161725,22.2585138 C31.1285004,21.142203 30.9723364,19.9166031 31.4954857,18.8159051 C32.0811006,17.5278542 31.1050758,16.2944479 30.9801446,15.0063971 L30.9801446,14.2257602 C30.7565828,11.6136087 29.9565695,9.08349291 28.6376851,6.81751611 C27.4742635,4.74102198 26.1078288,2.91433166 23.9527661,1.75898907 C21.1730474,0.322617192 18.362096,-0.395568746 15.3637478,1.25938146 C14.8199315,1.60474914 14.241606,1.89253599 13.638136,2.11808204 C11.1004715,2.89871893 10.6554042,5.24062959 9.73403675,7.21564092 C9.6472865,7.47201203 9.66409669,7.75211621 9.78088594,7.99627781 C10.3040352,9.20626499 10.7959517,10.455284 12.1233455,11.0641808 C12.4512898,11.2203082 13.0447129,11.3920483 13.1852604,11.2437273 C14.1300525,10.2523184 15.1138855,11.3061782 16.0821021,11.1344381 C17.1003618,11.0746904 18.1218007,11.1694408 19.111683,11.4154674 C19.3697769,11.4639449 19.611475,11.5767109 19.8144209,11.7433349 C21.3760606,13.0001603 22.492633,15.3342646 22.0397574,17.2858568 C21.4072934,19.9868604 20.1267488,22.09458 17.5500434,23.2889545 C17.3079892,23.3982436 17.0581269,23.4763073 16.8316891,23.6012092 C16.2420744,23.9017629 15.8644569,24.5010152 15.8478561,25.162483 C15.7619659,25.6933161 15.7775823,26.2163428 15.7697741,26.3334383 Z" id="path-32"></path>
        <mask id="mask-33" maskContentUnits="userSpaceOnUse" maskUnits="objectBoundingBox" x="-2" y="-2" width="26.0018337" height="36.5717356">
            <rect x="7.67926916" y="-1.69356826" width="26.0018337" height="36.5717356" fill="white"></rect>
            <use xlink:href="#path-32" fill="black"></use>
        </mask>
        <path d="M0.660910193,19.2452554 C0.364198654,22.2585138 1.77748257,24.8814537 2.51926142,27.6449083 C2.61628481,27.8885807 2.75945233,28.1112336 2.94090413,28.3006433 C5.02787831,30.8853979 8.06675738,32.5226323 11.3737584,32.84395 C12.1545783,32.9454328 12.9353981,33.0781411 13.5834786,32.3677615 C14.0926397,31.7492111 14.1582629,30.877564 13.7474507,30.1897846 C13.5430064,29.4270284 13.4664893,28.6356578 13.521013,27.8478739 L13.521013,23.8900449 C13.5587979,23.20325 13.0563748,22.6052674 12.3732078,22.5239303 C11.0614305,22.2585138 10.5538976,21.3920068 10.1166385,20.1351814 C9.72718676,19.0493221 9.74661663,17.8588274 10.1712959,16.7862492 C10.4646451,15.9389328 10.9032415,15.1491161 11.4674568,14.4521449 C11.8656749,13.9447309 11.8266339,13.3826723 11.241019,13.1875131 C10.0385565,12.7737756 9.40609241,11.7277221 8.5159578,10.9783107 C7.11048208,9.76832355 7.04801649,8.20704977 7.21198866,6.64577599 C7.35086146,6.14662123 7.52036012,5.65649381 7.71952156,5.17817864 C7.76637075,4.97521305 7.58678218,4.71760288 7.5087002,4.48341181 C7.38473795,4.53209721 7.26683008,4.59496668 7.15733127,4.67076466 C2.70665818,8.51149816 0.942005336,13.5544125 0.660910193,19.2452554 Z" id="path-34"></path>
        <mask id="mask-35" maskContentUnits="userSpaceOnUse" maskUnits="objectBoundingBox" x="-2" y="-2" width="17.3952374" height="32.4417828">
            <rect x="-1.37941893" y="2.48341181" width="17.3952374" height="32.4417828" fill="white"></rect>
            <use xlink:href="#path-34" fill="black"></use>
        </mask>
        <path d="M0.471802802,16.3240845 C0.0267354921,18.4005786 0.52646019,20.4458473 0.698240555,22.4911159 C0.705845567,23.1433585 0.841130431,23.7878001 1.09645867,24.3880636 C2.52535898,27.0578417 4.15727245,29.5168479 6.98384028,31.0390899 C9.16151842,32.2469539 11.5441881,33.040991 14.0112188,33.3810005 C14.8779289,33.4902897 14.9950518,33.474677 14.9950518,32.7642974 C14.9950518,31.0547026 14.9950518,29.3451078 14.9482027,27.635513 C14.8935453,26.3396558 14.7217649,25.0594113 14.5968337,23.7323286 C13.6520417,23.2951719 12.7072497,22.8814344 11.7702659,22.4208586 C11.2907606,22.2245815 10.8412823,21.9617903 10.435064,21.6402217 C10.0309094,21.3087382 9.72344396,20.8746124 9.54492936,20.3833963 C8.76410951,17.2608488 9.78698351,11.7963906 13.6754663,10.3053741 C14.0349324,10.1466954 14.3820589,9.96143066 14.7139567,9.75112191 C17.3921688,8.24449271 18.0558656,7.58095135 19.328602,5.15317063 C19.8308606,4.20947416 19.8069958,3.07273704 19.2655728,2.1509415 C18.7241497,1.22914596 17.7428296,0.654513367 16.6738145,0.633283041 C15.3620372,0.57083209 14.0424516,0.594251197 12.7228661,0.633283041 C12.2022841,0.631649832 11.6859499,0.726950741 11.2002674,0.914312321 C6.29671882,3.03764466 2.61124917,6.33193233 1.08865048,11.6402632 C0.765671982,13.1838339 0.559472536,14.7495387 0.471802802,16.3240845 Z" id="path-36"></path>
        <mask id="mask-37" maskContentUnits="userSpaceOnUse" maskUnits="objectBoundingBox" x="-2" y="-2" width="23.3972439" height="36.8362592">
            <rect x="-1.70809773" y="-1.40526693" width="23.3972439" height="36.8362592" fill="white"></rect>
            <use xlink:href="#path-36" fill="black"></use>
        </mask>
        <path d="M32.7274704,16.8861431 C32.8367852,16.5192437 33.1100722,16.1055062 33.0397984,15.7932514 C32.2589785,12.6160593 31.4781587,9.46228626 29.08885,7.00328006 C27.5426997,5.39607189 25.7978002,3.99260956 23.896398,2.8268727 C22.6002371,2.04623581 22.4128403,2.04623581 22.0224304,3.37331852 C21.5773631,4.85652861 21.3665418,6.39438328 20.312435,7.68243415 C19.3910676,8.80655127 19.5316151,9.24370793 20.5544891,10.3912442 C20.7262695,10.5864034 20.9370908,10.7581435 21.1088712,10.9533027 C22.5297431,12.5241623 23.2024484,14.6321819 22.9540633,16.7354804 C22.7056783,18.8387789 21.5604292,20.7322112 19.8127103,21.9290574 C18.946044,22.5159977 18.1215629,23.1629072 17.3453196,23.8650369 C16.8458221,24.3039401 16.6270175,24.9811765 16.7753211,25.6292762 C17.1844719,28.0286724 17.411557,30.4555656 17.4546343,32.8891993 C17.4376635,33.1536828 17.5560726,33.4087101 17.769087,33.5664615 C17.9821013,33.724213 18.2606227,33.7631393 18.5087411,33.6698362 C20.5388727,32.7642974 22.6392781,31.9836605 24.5757113,30.914188 C27.987894,29.0328531 30.7519962,26.5113959 31.7592538,22.514535 C31.884185,22.0149274 32.3214441,21.562158 32.3370605,21.0781632 C32.3761015,19.6730168 32.6884294,18.2912895 32.7274704,16.8861431 Z" id="path-38"></path>
        <mask id="mask-39" maskContentUnits="userSpaceOnUse" maskUnits="objectBoundingBox" x="-2" y="-2" width="20.3215461" height="35.4235519">
            <rect x="14.7296487" y="0.296266421" width="20.3215461" height="35.4235519" fill="white"></rect>
            <use xlink:href="#path-38" fill="black"></use>
        </mask>
    </defs>
    <g id="Layout" stroke="none" stroke-width="1" fill="none" fill-rule="evenodd">
        <g id="Character-Copy" transform="translate(-287.000000, -660.000000)">
            <g id="Legs" transform="translate(243.000000, 616.000000)">
                <mask id="mask-2" fill="white">
                    <use xlink:href="#path-1"></use>
                </mask>
                <use id="Mask" fill="#F2F5F6" transform="translate(152.500000, 152.500000) rotate(32.000000) translate(-152.500000, -152.500000) " xlink:href="#path-1"></use>
                <ellipse id="Oval" fill-opacity="0.159999996" fill="#4A4A4A" filter="url(#filter-3)" mask="url(#mask-2)" cx="154" cy="195.5" rx="81" ry="19.5"></ellipse>
                <g id="Robot-Copy-2" mask="url(#mask-2)">
                    <g transform="translate(158.239930, 14.030407) rotate(3.000000) translate(-158.239930, -14.030407) translate(66.739930, -174.469593)">
                        <g id="Legs-Copy-2" transform="translate(29.014493, 219.463972)">
                            <g id="Right-leg" transform="translate(74.514493, 12.521968)">
                                <g id="right-foot">
                                    <use fill="#209BFF" fill-rule="evenodd" xlink:href="#path-4"></use>
                                    <use stroke="#000000" mask="url(#mask-5)" stroke-width="4" xlink:href="#path-4"></use>
                                </g>
                                <g id="right-shin">
                                    <use fill="#FBAD1C" fill-rule="evenodd" xlink:href="#path-6"></use>
                                    <use stroke="#000000" mask="url(#mask-7)" stroke-width="4" xlink:href="#path-6"></use>
                                </g>
                                <g id="right-knee">
                                    <use fill="#209BFF" fill-rule="evenodd" xlink:href="#path-8"></use>
                                    <use stroke="#000000" mask="url(#mask-9)" stroke-width="4" xlink:href="#path-8"></use>
                                </g>
                                <g id="right-sole">
                                    <use fill="#073A59" fill-rule="evenodd" xlink:href="#path-10"></use>
                                    <use stroke="#000000" mask="url(#mask-11)" stroke-width="4" xlink:href="#path-10"></use>
                                </g>
                                <g id="right-upper-leg">
                                    <use fill="#FBAD1C" fill-rule="evenodd" xlink:href="#path-12"></use>
                                    <use stroke="#000000" mask="url(#mask-13)" stroke-width="4" xlink:href="#path-12"></use>
                                </g>
                                <g id="right-ankle">
                                    <use fill="#FBAD1C" fill-rule="evenodd" xlink:href="#path-14"></use>
                                    <use stroke="#000000" mask="url(#mask-15)" stroke-width="4" xlink:href="#path-14"></use>
                                </g>
                            </g>
                            <g id="Left-leg" transform="translate(0.000000, 9.226714)">
                                <g id="left-foot">
                                    <use fill="#209BFF" fill-rule="evenodd" xlink:href="#path-16"></use>
                                    <use stroke="#000000" mask="url(#mask-17)" stroke-width="4" xlink:href="#path-16"></use>
                                </g>
                                <g id="left-shin">
                                    <use fill="#FBAD1C" fill-rule="evenodd" xlink:href="#path-18"></use>
                                    <use stroke="#000000" mask="url(#mask-19)" stroke-width="4" xlink:href="#path-18"></use>
                                </g>
                                <g id="left-sole">
                                    <use fill="#073A59" fill-rule="evenodd" xlink:href="#path-20"></use>
                                    <use stroke="#000000" mask="url(#mask-21)" stroke-width="4" xlink:href="#path-20"></use>
                                </g>
                                <g id="left-knee">
                                    <use fill="#209BFF" fill-rule="evenodd" xlink:href="#path-22"></use>
                                    <use stroke="#000000" mask="url(#mask-23)" stroke-width="4" xlink:href="#path-22"></use>
                                </g>
                                <g id="left-ankle">
                                    <use fill="#FBAD1C" fill-rule="evenodd" xlink:href="#path-24"></use>
                                    <use stroke="#000000" mask="url(#mask-25)" stroke-width="4" xlink:href="#path-24"></use>
                                </g>
                                <g id="left-upper-leg">
                                    <use fill="#FBAD1C" fill-rule="evenodd" xlink:href="#path-26"></use>
                                    <use stroke="#000000" mask="url(#mask-27)" stroke-width="4" xlink:href="#path-26"></use>
                                </g>
                            </g>
                            <g id="lower-torso">
                                <use fill="#209BFF" fill-rule="evenodd" xlink:href="#path-28"></use>
                                <use stroke="#000000" mask="url(#mask-29)" stroke-width="4" xlink:href="#path-28"></use>
                            </g>
                        </g>
                        <g id="Upper-body-Copy-2" transform="translate(0.000000, 103.471002)">
                            <g id="Body">
                                <use fill="#209BFF" fill-rule="evenodd" xlink:href="#path-30"></use>
                                <use stroke="#000000" mask="url(#mask-31)" stroke-width="4" xlink:href="#path-30"></use>
                            </g>
                            <g id="Left-hand" transform="translate(0.000000, 106.766257)">
                                <g id="Shape">
                                    <use fill="#209BFF" fill-rule="evenodd" xlink:href="#path-32"></use>
                                    <use stroke="#000000" mask="url(#mask-33)" stroke-width="4" xlink:href="#path-32"></use>
                                </g>
                                <g id="Shape">
                                    <use fill="#209BFF" fill-rule="evenodd" xlink:href="#path-34"></use>
                                    <use stroke="#000000" mask="url(#mask-35)" stroke-width="4" xlink:href="#path-34"></use>
                                </g>
                            </g>
                            <g id="Right-hand" transform="translate(148.369565, 98.857645)">
                                <g id="Shape">
                                    <use fill="#209BFF" fill-rule="evenodd" xlink:href="#path-36"></use>
                                    <use stroke="#000000" mask="url(#mask-37)" stroke-width="4" xlink:href="#path-36"></use>
                                </g>
                                <g id="Shape">
                                    <use fill="#209BFF" fill-rule="evenodd" xlink:href="#path-38"></use>
                                    <use stroke="#000000" mask="url(#mask-39)" stroke-width="4" xlink:href="#path-38"></use>
                                </g>
                            </g>
                        </g>
                    </g>
                </g>
            </g>
        </g>
    </g>
</svg>