<?xml version="1.0" encoding="UTF-8"?>
<svg width="217px" height="217px" viewBox="0 0 217 217" version="1.1" xmlns="http://www.w3.org/2000/svg" xmlns:xlink="http://www.w3.org/1999/xlink">
    <!-- Generator: Sketch 41.2 (35397) - http://www.bohemiancoding.com/sketch -->
    <title>UpperBody</title>
    <desc>Created with Sketch.</desc>
    <defs>
        <polygon id="path-1" points="152.5 42 230.635299 74.3647007 263 152.5 230.635299 230.635299 152.5 263 74.3647007 230.635299 42 152.5 74.3647007 74.3647007"></polygon>
        <path d="M28.6033188,72.9015854 L28.7178676,72.9015854 C28.5422261,70.1054065 28.4964065,67.293948 28.1451234,64.4977691 C27.9236623,62.7329677 27.7556573,60.9758061 27.6945646,59.195725 C27.6945646,58.04975 27.5723792,56.9037751 27.5112865,55.7501603 C26.2906143,55.7647763 25.083518,56.0083712 23.9526357,56.4683046 C22.4253177,57.2322879 20.8979998,56.7051394 19.3706819,56.7509784 C19.0114147,56.773399 18.6821972,56.9591903 18.4772009,57.2552074 C18.2032698,57.9679335 17.9762329,58.6978224 17.7975444,59.4401996 C18.7597547,60.9681662 18.2633764,62.717688 18.4390179,64.3602521 C18.6146595,66.0028162 18.4924741,67.706499 18.5001107,69.3872622 C18.4448548,69.7713741 18.4603842,70.1623623 18.5459302,70.540877 C19.4394112,72.6418311 19.0652183,74.842103 19.126311,77.0118156 C19.1950403,79.3037655 19.3630453,81.656834 19.2408599,83.9717035 C19.1186744,86.2865729 20.2259799,88.4792049 20.1037945,90.8475532 C20.1037945,91.5274983 20.7070851,91.8942103 21.4631075,91.7566933 C21.8482791,91.730334 22.2282939,91.6532713 22.5933227,91.5274983 C24.4377168,90.6231252 26.4653047,90.1552226 28.5193163,90.1599682 C28.8577352,90.0631303 29.1211534,89.7967043 29.214246,89.4571036 C29.2677021,87.7839801 29.214246,86.1032169 29.214246,84.4300934 C29.214246,83.4063558 29.3822509,82.2833004 29.0386044,81.3741602 C28.6596558,80.1384669 28.5095508,78.8439093 28.5956822,77.5542437 C28.5880456,75.9575186 28.6033188,74.429552 28.6033188,72.9015854 Z" id="path-3"></path>
        <mask id="mask-4" maskContentUnits="userSpaceOnUse" maskUnits="objectBoundingBox" x="-2" y="-2" width="15.4577642" height="40.0351656">
            <rect x="15.7975444" y="53.7501603" width="15.4577642" height="40.0351656" fill="white"></rect>
            <use xlink:href="#path-3" fill="black"></use>
        </mask>
        <path d="M12.3679292,45.741979 C11.9784631,49.3479802 13.6661494,51.6704894 16.4611412,53.4658502 C18.1488275,54.5430667 20.1419774,54.4513887 21.9213028,55.123694 C22.1274908,55.2000923 22.4253177,55.077855 22.6849618,55.0243761 C26.2665223,54.2603928 28.9087824,52.0524811 30.963025,49.1951835 C31.7366167,48.024409 32.2400734,46.6960758 32.4368868,45.3065085 C32.8492626,42.8388425 31.3983106,39.0418455 29.5884388,37.1930059 C28.7636872,36.3449844 27.8702062,35.6650393 26.533803,35.8560351 C26.026447,35.9328063 25.5077362,35.8556319 25.044668,35.6344799 C22.959879,34.5190643 21.081278,35.1149713 19.2179501,36.1769081 C18.5697878,36.5926028 17.896475,36.9676748 17.2018904,37.2999635 C16.5897408,37.5191862 16.1704807,38.0864839 16.1404045,38.7362521 C16.0972251,39.2700735 15.6736059,39.6938726 15.1400112,39.7370703 C14.5066184,39.8175633 13.9558851,40.2107013 13.673786,40.7837274 C12.6733928,42.3422533 12.016646,43.9695378 12.3679292,45.741979 Z" id="path-5"></path>
        <mask id="mask-6" maskContentUnits="userSpaceOnUse" maskUnits="objectBoundingBox" x="-2" y="-2" width="24.2352641" height="24.1122406">
            <rect x="10.2722589" y="33.0359019" width="24.2352641" height="24.1122406" fill="white"></rect>
            <use xlink:href="#path-5" fill="black"></use>
        </mask>
        <path d="M14.5061743,15.8091132 L14.6512695,15.8091132 L14.6512695,21.5924668 C14.6028842,22.1114921 14.676096,22.6346559 14.865094,23.1204334 C15.3920187,24.0983321 15.2621967,25.1220697 15.292743,26.1381675 C15.3691089,28.1932826 15.422565,30.2483976 15.422565,32.3111526 C15.432394,33.2048399 15.6356045,34.0857928 16.018219,34.8934161 C16.2625899,35.4511239 16.3618656,35.6573994 17.0262489,35.3059671 C19.2103135,34.075954 21.2874659,32.4181102 24.0900943,33.1362545 C24.3028337,33.1116497 24.4877163,32.9787089 24.578836,32.7848222 C24.6689783,32.0241462 24.7148752,31.2588739 24.7162946,30.4928723 C24.7162946,27.9335282 24.2657359,25.4200232 24.0137284,22.8530393 C23.7464478,20.1714579 23.8609966,17.4593172 23.7999039,14.7548163 C23.8292318,14.3719022 23.7690992,13.9874131 23.6242623,13.6317608 C23.0056986,12.5469045 23.2042499,11.3780101 23.1889767,10.239675 C23.1431572,7.41293674 23.127884,4.57855869 23.0744279,1.75182047 C23.0349513,1.37651377 22.9608143,1.00567141 22.8529668,0.644044685 C22.6238691,0.850320176 22.3871348,1.04895583 22.1809469,1.27051099 C20.7758144,2.7984776 19.3935917,4.3264442 17.9808226,5.79329214 C16.9346098,6.8934281 15.2240137,7.5198944 14.735272,8.91034401 C14.2465302,10.3007936 14.5443572,11.9662772 14.5138109,13.4942438 C14.4985377,14.265867 14.5061743,15.0374901 14.5061743,15.8091132 Z" id="path-7"></path>
        <mask id="mask-8" maskContentUnits="userSpaceOnUse" maskUnits="objectBoundingBox" x="-2" y="-2" width="14.2646993" height="38.8351019">
            <rect x="12.4515953" y="-1.35595532" width="14.2646993" height="38.8351019" fill="white"></rect>
            <use xlink:href="#path-7" fill="black"></use>
        </mask>
        <path d="M32.9726354,92.4605045 L32.9726354,92.4605045 L32.9726354,88.5871091 C32.9726354,86.7841085 33.2170062,84.8894299 32.7511743,83.2010268 C32.3937075,81.578653 32.2347183,79.9188193 32.2777057,78.2580549 C32.1937032,75.6834312 32.2777057,73.0935278 32.0791544,70.5265439 C31.8958762,68.372111 31.3154954,66.2482374 31.4300443,64.0479655 C31.4274016,63.7205984 31.2546454,63.4182031 30.9740405,63.2497686 C30.6934356,63.0813341 30.3454324,63.0711412 30.0554581,63.2228635 C27.5582933,64.30008 25.0076724,63.887529 22.464688,63.6201348 C21.9377633,63.566656 21.4719314,63.245783 21.4566582,64.0861646 C21.4566582,65.2474192 21.1588312,66.5003519 21.5101143,67.547009 C22.2279537,69.7014419 21.907217,71.8711545 22.0904951,74.0332272 C22.3577758,77.2190376 21.7468486,80.4659666 22.8083345,83.5906583 C22.5716003,87.5939308 23.617813,91.5055253 23.617813,95.4858783 C23.617813,97.013845 23.6941789,98.5418116 23.7934546,100.123257 C23.8047476,100.641132 24.0344724,101.130065 24.4258477,101.469207 C24.8172231,101.808349 25.3337279,101.966053 25.8476972,101.903338 L32.0333348,101.903338 C32.2909097,101.93852 32.5506128,101.855659 32.7402665,101.677783 C32.9299203,101.499907 33.029312,101.245974 33.0108183,100.986558 C32.980272,98.1369004 32.9726354,95.2948825 32.9726354,92.4605045 Z" id="path-9"></path>
        <mask id="mask-10" maskContentUnits="userSpaceOnUse" maskUnits="objectBoundingBox" x="-2" y="-2" width="15.6978822" height="42.8009811">
            <rect x="19.3388135" y="61.1158543" width="15.6978822" height="42.8009811" fill="white"></rect>
            <use xlink:href="#path-9" fill="black"></use>
        </mask>
        <path d="M28.2074034,43.6878105 L28.2074034,43.6878105 L24.7251185,43.6878105 C23.8229933,43.7163875 22.9438909,43.9797036 22.1744976,44.4517938 C18.9976763,46.2089554 17.5925438,49.1502911 16.7754287,52.4812583 C16.74005,52.8605699 16.7842685,53.2430923 16.9052507,53.6043137 C17.0330397,54.3559184 17.209045,55.0985168 17.4321754,55.8275051 C17.8063683,56.9123614 18.0278294,58.119455 18.9594934,58.8834383 C20.2653502,59.8918963 21.6857559,60.7551974 23.0679786,61.6643376 C23.5632787,62.0742142 24.2508279,62.1605666 24.8320308,61.8858927 C25.4964141,62.5352785 26.298256,61.5879392 26.9779125,62.0768885 C28.3000577,61.6532137 29.6433734,61.2987542 31.0023952,61.0149518 C34.561046,60.4725236 37.1651231,56.0948993 36.645835,52.5423769 C36.42097,50.5170977 35.8365121,48.548242 34.9199657,46.728464 C33.8508432,44.7573871 32.4991668,43.4738951 30.1089143,43.6725308 C29.4750773,43.7412893 28.848877,43.6878105 28.2074034,43.6878105 Z" id="path-11"></path>
        <mask id="mask-12" maskContentUnits="userSpaceOnUse" maskUnits="objectBoundingBox" x="-2" y="-2" width="23.9482867" height="22.4701374">
            <rect x="14.7636038" y="41.6523191" width="23.9482867" height="22.4701374" fill="white"></rect>
            <use xlink:href="#path-11" fill="black"></use>
        </mask>
        <path d="M34.599229,41.1590257 C33.0337281,37.1786727 33.83557,32.8774467 33.5301064,28.6602589 C33.3468283,26.368309 33.0566379,24.1221981 33.0260915,21.8455278 C33.0260915,20.0272476 33.4461039,18.2318868 33.4308308,16.4288862 C33.4308308,14.2286143 32.3617082,13.7931438 30.7503878,12.6089697 C27.1688272,9.88154934 25.2214969,4.9691367 23.1137981,1.10338119 C22.4494148,-0.0960725905 20.8228212,1.10338119 21.2428337,2.26463581 C20.8357338,2.42085945 20.5268638,2.7610443 20.4104454,3.18141578 C19.9446134,5.03025537 20.2958965,6.78741696 20.3569893,8.66681589 C20.4257186,11.042804 20.0897086,13.3805929 20.2729868,15.7489411 C20.4562649,18.1172893 20.0057061,20.6537139 20.2729868,23.0831808 C20.6166333,25.8488004 21.0366457,28.4921826 21.2199239,31.2883615 C21.3524985,34.132849 21.6328856,36.9685117 22.0599488,39.7838558 C22.2279537,40.7693942 22.2432269,41.7472929 23.1672543,42.3508397 C24.0912816,42.9543865 25.5651434,42.6182338 26.6113562,42.4348778 C29.1314308,42.0070472 31.19331,42.8779882 33.6217455,42.702272 C33.969804,42.6531225 34.2787698,42.4536431 34.4669151,42.1566001 C34.6550605,41.8595571 34.70343,41.4948772 34.599229,41.1590257 Z" id="path-13"></path>
        <mask id="mask-14" maskContentUnits="userSpaceOnUse" maskUnits="objectBoundingBox" x="-2" y="-2" width="18.4805556" height="46.1204408">
            <rect x="18.1725688" y="-1.39441342" width="18.4805556" height="46.1204408" fill="white"></rect>
            <use xlink:href="#path-13" fill="black"></use>
        </mask>
        <path d="M57.825741,27.7736326 C59.3530589,27.7736326 61.0254721,28.1250649 62.4076948,27.6819546 C64.2022934,27.116607 65.9739822,27.3381621 67.7533076,27.1471663 C69.532633,26.9561705 71.2355924,26.383183 73.0989203,26.383183 C75.1410362,26.2705599 77.1683171,25.9687682 79.1547359,25.4816827 C80.1212554,25.1527943 81.0587069,24.7439225 81.9573643,24.2593094 C83.37777,23.686322 84.8210854,23.1591735 86.2491277,22.6091055 C90.8444527,20.9106817 94.9698337,18.1426743 98.284393,14.533802 C100.491367,12.0890554 101.980502,9.3081562 101.766678,5.84731185 C101.77928,4.9525269 101.868702,4.06047938 102.033959,3.18101012 C102.18669,1.83639951 101.522307,0.889060215 100.369182,0.759183053 L96.2912431,0.369551569 C95.6650428,0.308432905 94.7639252,-0.0506392472 94.450825,0.232034575 C93.3740659,1.1411747 92.2667604,0.232034575 91.1594549,0.529988062 C89.9006997,0.761692124 88.6171483,0.828465145 87.34116,0.728623721 C83.9886972,0.789742385 80.6285977,0.820301717 77.2761349,0.889060215 C76.6426146,0.932339074 76.0125544,1.01655291 75.3898972,1.1411747 C74.6343076,1.30598121 73.8691553,1.42335439 73.0989203,1.49260702 C67.83731,1.63776385 62.5986095,1.49260702 57.3217261,2.17255216 C52.6404966,2.76845914 47.8370817,2.17255216 43.1176693,2.98237446 C41.8340334,3.11689672 40.5411608,3.13990225 39.253555,3.05113296 L34.9999745,3.05113296 L31.1282236,3.05113296 C29.7078179,3.05113296 28.2950488,3.05113296 26.8746431,3.08933212 C25.5992949,3.00691575 24.3187476,3.06584595 23.0563483,3.26504828 C21.628306,3.62412044 20.3148126,3.08933212 18.9478631,3.19628979 C18.1842041,3.25740845 17.4205451,3.19628979 16.6568862,3.24976862 C16.4011511,3.25392103 16.1594564,3.36751813 15.9930044,3.5617947 C15.8265523,3.75607126 15.7513044,4.01239761 15.786315,4.26586641 C15.9630303,5.65701613 16.2986891,7.02329198 16.7867082,8.33789741 C18.6805824,12.2342123 20.2002638,16.4284806 24.0720147,18.9801848 C28.569966,23.4418473 34.4195937,24.9163351 40.2997678,26.3220643 C43.8889649,26.4137423 47.3941595,27.5597173 50.9909933,27.2464841 C51.3742795,27.168022 51.7712648,27.1890632 52.1441183,27.3076028 C53.9539901,28.2243828 55.9165936,27.7277936 57.825741,27.7736326 Z" id="path-15"></path>
        <mask id="mask-16" maskContentUnits="userSpaceOnUse" maskUnits="objectBoundingBox" x="-2" y="-2" width="90.2777461" height="31.7809529">
            <rect x="13.7778994" y="-1.87511921" width="90.2777461" height="31.7809529" fill="white"></rect>
            <use xlink:href="#path-15" fill="black"></use>
        </mask>
        <path d="M39.3668028,103.845532 L39.3668028,103.845532 L39.3668028,102.483088 C39.3668028,101.848893 39.6111967,101.182451 39.1453208,100.588566 C38.7878203,100.017905 38.6288162,99.4340687 38.6718076,98.8499047 C38.5877972,97.9442961 38.6718076,97.033313 38.4732375,96.1303917 C38.2899421,95.3725828 37.7095066,94.6255229 37.8240662,93.8515904 C37.8214233,93.736441 37.6486509,93.6300752 37.3680195,93.5708294 C37.0873881,93.5115836 36.7393521,93.5079982 36.4493505,93.5613657 C33.9519502,93.9402701 31.4010888,93.7951578 28.8578647,93.7011035 C28.3308903,93.6822926 27.8650144,93.5694275 27.8497398,93.8650267 C27.8497398,94.2734911 27.5518847,94.7142027 27.903201,95.0823581 C28.6211081,95.840167 28.3003411,96.6033505 28.4836365,97.3638467 C28.7509424,98.4844365 28.1399576,99.6265245 29.2015436,100.725616 C28.964787,102.133743 30.0110985,103.509623 30.0110985,104.909689 C30.0110985,105.447142 30.0874716,105.984595 30.1867566,106.540859 C30.1980506,106.723019 30.4277971,106.894998 30.8192093,107.014289 C31.2106215,107.13358 31.7271751,107.189052 32.2411929,107.166992 L38.4274137,107.166992 C38.6850128,107.179367 38.9447404,107.150221 39.134412,107.087654 C39.3240836,107.025088 39.4234847,106.935768 39.4049893,106.84452 C39.3744401,105.84217 39.3668028,104.842507 39.3668028,103.845532 Z" id="path-17"></path>
        <mask id="mask-18" maskContentUnits="userSpaceOnUse" maskUnits="objectBoundingBox" x="-2" y="-2" width="15.6989851" height="17.648014">
            <rect x="25.7318841" y="91.5237258" width="15.6989851" height="17.648014" fill="white"></rect>
            <use xlink:href="#path-17" fill="black"></use>
        </mask>
        <path d="M7.43809229,97.3009134 C10.3705427,97.8815407 13.8681008,96.6362479 17.4572979,96.5369301 C18.8699887,96.6210578 20.2876675,96.5364226 21.680332,96.2848156 C22.7964062,96.0039047 23.9430348,95.8627607 25.0938876,95.8646248 C27.2855888,95.8111459 29.5460193,96.0861799 31.6537181,95.6354298 C34.1691247,95.144682 36.7276228,94.9092002 39.2903077,94.9325651 C39.6751802,94.948213 40.0586928,94.877742 40.4128864,94.7262896 C41.8791116,93.9623063 43.4675223,94.6040523 44.9948402,94.1533022 C46.4661799,93.7138821 47.9955912,93.5000857 49.5309745,93.519196 C51.9823198,93.519196 54.4413016,93.519196 56.8850103,93.3740392 C59.328719,93.2288824 61.9862522,92.9538484 64.5216,92.7246534 C65.0637978,92.6711746 65.50672,92.4419796 65.5143566,91.7849539 C65.5143566,89.722199 65.6289055,87.6518043 65.5907225,85.5890493 C65.566514,84.1771184 65.4491645,82.7683262 65.2394394,81.3718615 C64.8957929,79.0799116 64.3459584,76.8567202 64.055768,74.58005 C63.6291832,71.0339409 62.7911473,67.5496152 61.5586032,64.1975169 C60.0329981,60.0472598 57.090129,56.5700605 53.2499936,54.3803315 C51.0888388,53.119759 44.383913,51.1486821 41.9478409,50.8430888 C39.1452125,50.4840166 36.3120378,51.0493643 33.5094094,50.4076183 C32.5930186,50.2013428 31.5238961,50.6291734 30.5235028,50.7819701 C26.8426666,51.3396779 23.3451085,52.1724197 20.1453775,54.3956111 C17.4158105,56.2821336 14.9436459,58.5165019 12.7913416,61.0422658 C11.7909484,62.2188001 10.5690941,63.2883768 9.88180098,64.6329874 C7.39227275,69.5377602 4.4827321,74.2668168 3.00887029,79.6299796 C2.08484294,82.9456671 0.85535201,86.2155157 1.13026924,89.768038 C1.10740021,90.2758575 1.00163652,90.7765129 0.817169062,91.2501656 C0.267334607,93.2747214 0.588071372,95.3374763 0.519342065,97.362032 C0.519342065,97.4919092 0.885898369,97.774583 1.00044721,97.7363839 C2.86377509,97.1022777 4.82637863,97.6217864 7.43809229,97.3009134 Z" id="path-19"></path>
        <mask id="mask-20" maskContentUnits="userSpaceOnUse" maskUnits="objectBoundingBox" x="-2" y="-2" width="69.1107741" height="51.3874281">
            <rect x="-1.51225911" y="48.3524735" width="69.1107741" height="51.3874281" fill="white"></rect>
            <use xlink:href="#path-19" fill="black"></use>
        </mask>
        <path d="M40.468423,76.2932872 C44.1316438,76.5374476 47.4195793,74.0568052 48.1919798,70.4661099 C49.1355818,66.9698035 46.1766324,62.1099376 42.6818103,61.3407502 C42.2896988,61.2595312 41.8819585,61.3044017 41.5168696,61.4689481 C40.095642,62.1332463 38.6045179,62.7392728 37.8240077,64.2310302 C37.1949397,65.3964656 36.659067,66.7134077 36.0183496,67.9138062 C35.2802305,69.0877099 35.2893181,70.5832496 36.0416484,71.7480889 C36.574164,72.5718402 37.0155532,73.4510858 37.3580314,74.3703187 C37.7286418,75.7294109 39.0876106,76.5695798 40.468423,76.2932872 Z" id="path-21"></path>
        <mask id="mask-22" maskContentUnits="userSpaceOnUse" maskUnits="objectBoundingBox" x="-2" y="-2" width="16.8985507" height="19.0444643">
            <rect x="33.4710145" y="59.3012961" width="16.8985507" height="19.0444643" fill="white"></rect>
            <use xlink:href="#path-21" fill="black"></use>
        </mask>
        <path d="M31.0560334,69.7781615 L31.0560334,68.4687623 C30.9789049,66.0570979 29.3155193,63.9877112 26.9775844,63.3948407 C25.7393749,63.0419086 24.411703,63.1960245 23.2871703,63.8232232 C22.1626376,64.450422 21.3335454,65.4992232 20.9826149,66.7384849 C20.7944014,67.0829469 20.6266106,67.4381897 20.4801125,67.8023717 C19.2180137,72.6190899 20.2814488,74.4428958 25.1545527,75.9042788 C25.3415303,75.9042788 25.5051357,76.1497911 25.6804272,76.1614822 C26.0705501,76.24789 26.4776076,76.2153116 26.8490372,76.0679537 C29.0577102,74.4896601 31.5702218,73.0516593 31.0560334,69.7781615 Z" id="path-23"></path>
        <mask id="mask-24" maskContentUnits="userSpaceOnUse" maskUnits="objectBoundingBox" x="-2" y="-2" width="15.1309934" height="16.9996087">
            <rect x="17.9927536" y="61.2091388" width="15.1309934" height="16.9996087" fill="white"></rect>
            <use xlink:href="#path-23" fill="black"></use>
        </mask>
        <path d="M34.6557348,78.4543064 C34.072952,79.7880336 33.5155076,81.0874827 32.9390594,82.3775832 C32.6445007,83.0413306 32.3055998,83.6894971 32.0047065,84.3501283 C31.4821024,85.4937681 30.9594982,86.6342918 30.4622324,87.7779317 C29.904788,89.0742646 29.3695147,90.3830622 28.8374086,91.6887437 C28.7586575,91.859247 28.7575447,92.0546996 28.8343494,92.2260602 C28.9111541,92.3974207 29.058587,92.5284259 29.2396555,92.586205 L31.7513227,93.5491061 C33.3349716,94.1723431 33.0562494,94.1505298 33.7657241,92.6422963 C33.8451497,92.5023762 33.9048218,92.3524584 33.9430928,92.1966819 C34.2091458,90.5887304 35.0738182,89.1677501 35.412719,87.5847282 C36.3344027,85.5311624 36.9678623,83.3560653 38.0669147,81.3741717 C38.2075232,81.0929982 38.3250868,80.801227 38.4184847,80.5016399 C38.4643819,80.4048424 38.4622509,80.2926122 38.4127112,80.1975687 C38.3631715,80.1025253 38.2717806,80.0353308 38.1651009,80.0155151 C36.8804692,79.7937928 35.673443,79.2568241 34.6557348,78.4543064 L34.6557348,78.4543064 Z" id="path-25"></path>
        <mask id="mask-26" maskContentUnits="userSpaceOnUse" maskUnits="objectBoundingBox" x="-2" y="-2" width="13.673913" height="19.4797891">
            <rect x="26.7775351" y="76.4543064" width="13.673913" height="19.4797891" fill="white"></rect>
            <use xlink:href="#path-25" fill="black"></use>
        </mask>
        <path d="M113.82828,0.812932321 C112.467555,1.08318189 111.09364,1.28208892 109.712158,1.4088393 C107.528094,1.53871646 105.321119,1.49287746 103.129418,1.47759779 C100.822968,1.56537449 98.5259422,1.82070795 96.2564872,2.2415811 C92.9778086,2.80671653 89.6558682,3.08281033 86.3289206,3.06668306 C85.8053,3.02291385 85.2792469,3.11501224 84.8016027,3.33407722 C83.8368215,3.7363522 82.7862233,3.88875364 81.7469668,3.77718753 C78.4174137,3.85358586 75.0496777,3.48687388 71.8194003,4.54117084 C68.0698348,4.23557751 64.4271815,5.35099314 60.6928892,5.3662728 C55.5992839,5.3662728 50.5514981,6.2677731 45.4197098,6.1990146 C42.7530373,6.16876445 40.1056058,6.65385745 37.6227518,7.62766338 C36.6299951,8.00965503 36.1870729,8.43748568 36.5230829,9.23202831 C37.0621699,10.6965063 37.2809168,12.2596485 37.1645564,13.8159281 C37.1263735,15.5196109 37.8289397,17.0857767 37.8518495,18.7512603 C37.8518495,21.3335238 37.7754836,23.9234272 37.8518495,26.5056908 C37.9434886,28.6524839 37.2714687,30.9062346 38.5773255,32.9307903 C38.698483,33.1710287 38.698483,33.4545352 38.5773255,33.6947736 C37.5692957,35.3831767 37.9282154,37.2396562 38.103857,38.9891779 C38.1665995,39.9654418 38.314808,40.9343195 38.5467792,41.8846746 C38.7145722,42.8941562 38.7607214,43.9201292 38.6842378,44.9406079 C38.6842378,45.9719853 38.6842378,47.0110026 38.7758768,48.0347402 C38.8675159,49.0584779 39.2722552,50.0287366 39.3257113,51.0371946 C39.5318992,54.8571111 39.0813404,58.7610658 40.150463,62.5351433 C39.4326236,64.1547879 40.3031948,65.7591528 40.2115557,67.3864373 C39.9846733,69.7016433 40.0642723,72.0366821 40.44829,74.3310455 C40.7861884,76.093209 40.9473563,77.8847241 40.9293951,79.6789286 C40.9981244,83.4224468 41.0286708,87.165965 41.0821269,90.917123 C41.0015432,91.4275081 41.0354541,91.9494354 41.1814026,92.4450896 C41.9450615,93.7897002 41.6701443,95.218349 41.6930541,96.6164384 C41.76942,100.619711 41.7923298,104.622983 41.8534225,108.626256 C41.8350264,109.2627 41.909634,109.898421 42.0748836,110.513295 C42.6789208,112.321039 43.0885219,114.188077 43.2967379,116.082733 C43.3578306,116.65572 43.648021,117.075911 44.2513116,117.068271 C47.7335965,117.068271 51.2158814,117.007153 54.6981663,116.976593 C56.4316721,116.143852 58.126995,116.426525 59.9292302,116.915475 C61.1358114,117.243988 62.4951243,116.999513 63.785708,116.999513 C65.2061136,116.999513 66.725795,117.297466 68.0163786,116.892555 C69.3069623,116.487644 70.5364532,117.052992 71.6666685,116.755038 C72.6737393,116.551833 73.694983,116.426678 74.7213043,116.380686 C78.4174137,115.983415 82.1975256,116.739759 85.8478155,115.616703 C86.2336213,115.575149 86.6227713,115.575149 87.0085771,115.616703 C92.3541899,115.242351 97.7838051,115.700741 103.190511,114.967317 C108.131384,114.295012 113.209716,115.097194 118.165863,114.073457 C121.487779,114.226254 124.847879,113.660906 128.139249,114.592966 C128.387924,114.686079 128.66548,114.660566 128.893033,114.523679 C129.120585,114.386793 129.273253,114.153498 129.307647,113.890101 C129.39165,112.09474 130.170582,110.429257 130.109489,108.588057 C130.01785,105.753679 130.170582,102.911661 130.216401,100.069643 C130.216401,99.3056596 130.01785,98.419439 130.30804,97.777693 C131.071699,96.0281713 130.796782,94.2328105 130.834965,92.4298099 C130.911331,88.4265374 131.018243,84.4232649 130.941877,80.4199924 C130.903694,78.2579197 131.232068,76.0423681 130.300404,73.9337742 C130.136789,73.4426962 130.175257,72.9066653 130.407316,72.4440067 C130.801198,71.4766177 130.950701,70.4270253 130.842602,69.3880735 C130.880785,67.4551958 130.957151,65.522318 130.957151,63.5818004 L130.957151,29.0803145 C130.957151,24.5651732 130.888421,20.0500319 130.957151,15.5348906 C131.02588,11.0197492 130.407316,6.52752742 131.568078,2.0811446 C131.641245,1.82989087 131.61152,1.55984049 131.485456,1.33053553 C131.359391,1.10123056 131.147341,0.931501591 130.896058,0.858771319 C130.300404,0.637216161 129.72766,0.140627015 129.147279,0.132987182 C127.100673,0.132987182 125.000611,-0.310123133 123.038007,0.43094067 C121.953611,0.843491653 120.74703,0.385101672 119.723727,1.25604264 C118.433144,2.38673792 117.386931,0.576097497 116.126893,0.820572154 C115.361436,0.871255549 114.593384,0.868702798 113.82828,0.812932321 L113.82828,0.812932321 Z" id="path-27"></path>
        <mask id="mask-28" maskContentUnits="userSpaceOnUse" maskUnits="objectBoundingBox" x="-2" y="-2" width="99.1954414" height="121.10358">
            <rect x="34.4119582" y="-1.99843499" width="99.1954414" height="121.10358" fill="white"></rect>
            <use xlink:href="#path-27" fill="black"></use>
        </mask>
        <path d="M84.4274098,69.8846627 C84.4083619,70.0521989 84.4083619,70.2213555 84.4274098,70.3888917 C84.4961391,70.6257265 84.6030514,70.8472816 84.6870538,71.0841165 C84.8626954,70.9771588 85.1147029,70.9160401 85.1987054,70.7632435 C87.2682212,66.943327 89.6279274,63.2914868 91.3614332,59.3034939 C94.0495128,53.0617504 97.4707049,47.1408798 100.021326,40.8380175 C101.182088,37.9959996 102.426852,35.1921809 103.57234,32.3425232 C103.757717,31.7325427 103.860455,31.1004381 103.877804,30.4631243 C103.938896,29.9436156 103.625796,29.6456621 103.243967,29.8290181 C101.716649,30.5471624 100.242787,31.2882262 98.7307422,31.9987307 C96.9972364,32.8161929 95.2637305,33.6260152 93.4767685,34.3365196 C90.5366815,35.5130539 87.2453114,35.8110074 84.6488709,37.8814021 C84.1677658,38.2710336 83.4270166,37.8814021 82.8924553,37.4535715 C82.4747611,37.1612147 82.3633709,36.5905195 82.6404478,36.1624397 C83.5312615,33.7638255 84.1087799,31.2601826 84.3586805,28.7136025 C84.8397856,25.2909573 85.7103569,21.96763 86.359467,18.5908238 C86.5503817,17.5900056 86.6649306,16.5815477 86.7642062,15.5348906 C86.7642062,15.3591744 86.5351085,15.1605387 86.4129231,14.9695429 C86.3136474,15.0535811 86.1838254,15.1223396 86.1303693,15.2292972 C84.6717807,18.078955 83.213192,20.9209728 81.7927864,23.7935501 C79.0665239,29.3095095 76.1493466,34.7337909 73.2779889,40.1809919 C71.9644955,42.6792173 70.5746362,45.1316037 69.2687793,47.6298291 C69.0090423,48.0668925 68.9374085,48.5905929 69.070228,49.0813974 C69.5055136,49.8453807 70.1240774,49.1959948 70.7044582,49.0813974 C72.4565347,48.7371357 74.1797768,48.259531 75.8591562,47.6527486 C77.5468425,47.0874009 79.3414411,46.8200068 80.9374883,45.9567056 C81.171393,45.8299086 81.4353738,45.7691672 81.7011473,45.7809895 C83.5644752,45.8879472 85.1757956,45.0170062 86.8634819,44.4516585 C88.0318801,44.0696669 88.6886268,44.749612 88.3373437,45.8421082 C87.7722361,47.5839901 87.8791483,49.4022703 87.4667725,51.1135929 C87.0162137,53.0006317 87.1536723,54.9335094 86.5809281,56.7747092 C86.2326191,58.0047206 86.0301312,59.2714487 85.9776375,60.5487867 C85.9376231,61.696334 85.7737578,62.8361942 85.4888958,63.9485124 C85.0105385,65.9029072 84.6560046,67.8855681 84.4274098,69.8846627 Z" id="path-29"></path>
        <mask id="mask-30" maskContentUnits="userSpaceOnUse" maskUnits="objectBoundingBox" x="-3" y="-3" width="40.8805159" height="62.1145735">
            <rect x="66.0049436" y="11.9695429" width="40.8805159" height="62.1145735" fill="white"></rect>
            <use xlink:href="#path-29" fill="black"></use>
        </mask>
        <path d="M2.4648105,88.6418434 C2.51063004,89.1227219 2.52590322,89.3166245 2.54881299,89.5144052 C2.57153976,89.6792023 2.74610123,89.8288844 3.01974526,89.918218 C3.29338928,90.0075516 3.63400994,90.0260552 3.93867231,89.9681373 C4.18304318,89.9371129 4.41214086,89.8673079 4.65651173,89.8401615 C6.02346128,89.6927956 7.39041083,89.5376735 8.77263356,89.4213319 C9.10100691,89.3941855 9.46756322,89.5221613 9.82648293,89.5415515 C12.7131138,89.7160639 13.2934946,89.4678685 13.3469508,88.017477 C13.3469508,87.0363298 13.0033042,86.008646 13.4614996,85.0817915 C14.0724268,83.8446929 13.8967852,82.6269845 13.9807877,81.397642 C14.0647902,80.0907384 14.1106097,78.7799568 14.1717024,77.4730532 C15.1033664,76.5500768 14.6909905,75.5534174 14.7520833,74.5877824 C14.8360857,73.149025 14.8437223,71.7102677 14.9506346,70.2715103 C15.0117273,69.4726316 14.9506346,69.3834364 13.5455021,69.6859245 C10.6054151,70.321925 7.69587442,71.0005841 4.79397035,71.6831213 C3.82412346,71.9119264 3.09101085,72.2260486 3.26665242,72.8891956 C3.44229398,73.5523425 3.09864744,74.3085626 3.66375508,74.9872218 C2.90009611,75.7007834 3.54920623,76.3716864 3.83176005,77.0697358 C4.04399218,77.5169545 4.00964502,77.9852146 3.73248439,78.423176 C3.17501334,79.1289815 3.31247195,79.838665 3.28956219,80.5483486 L3.28956219,83.6895708 C3.28956219,84.7366449 3.28956219,85.783719 3.12155721,86.826915 C2.97467944,87.438045 2.75536584,88.0441211 2.4648105,88.6418434 L2.4648105,88.6418434 Z" id="path-31"></path>
        <mask id="mask-32" maskContentUnits="userSpaceOnUse" maskUnits="objectBoundingBox" x="-2" y="-2" width="16.5009676" height="24.4756484">
            <rect x="0.464810503" y="67.5257205" width="16.5009676" height="24.4756484" fill="white"></rect>
            <use xlink:href="#path-31" fill="black"></use>
        </mask>
        <path d="M18.1274559,23.1466658 C16.7223234,26.4165143 15.3782836,29.6023247 13.9884243,32.7652156 C13.2782215,34.3925 12.4611064,35.9815853 11.7356303,37.6012299 C10.4755931,40.4050486 9.21555576,43.2012275 8.01661118,46.0050462 C6.6725714,49.1832167 5.38198775,52.3919466 4.09904069,55.5930366 C3.90916595,56.011053 3.90648289,56.4902369 4.09166471,56.9103552 C4.27684653,57.3304734 4.63231822,57.6516539 5.06888758,57.7933085 L11.1247032,60.1540169 C14.942998,61.6819835 14.2709781,61.6285047 15.9815742,57.9308255 C16.1730751,57.5877886 16.3169489,57.2202408 16.4092232,56.8383294 C17.0506967,52.8961756 19.1354857,49.4124117 19.9526008,45.5313765 C22.1748484,40.4967266 23.7021663,35.1641231 26.3520629,30.3051893 C26.6910805,29.6158469 26.9745351,28.9005225 27.1997244,28.1660361 C27.3103858,27.9287213 27.3052479,27.6535706 27.1858041,27.4205562 C27.0663602,27.1875418 26.8460098,27.0228035 26.5887972,26.9742221 C23.4914551,26.430634 20.5812257,25.1141681 18.1274559,23.1466658 L18.1274559,23.1466658 Z" id="path-33"></path>
        <mask id="mask-34" maskContentUnits="userSpaceOnUse" maskUnits="objectBoundingBox" x="-2" y="-2" width="27.3245205" height="41.9512153">
            <rect x="1.9546812" y="21.1466658" width="27.3245205" height="41.9512153" fill="white"></rect>
            <use xlink:href="#path-33" fill="black"></use>
        </mask>
        <path d="M28.062659,16.7368459 L27.9939297,16.7368459 L27.9939297,12.4967385 C27.9939297,11.0833694 28.2535738,9.55540284 27.803015,8.28719055 C27.1768146,6.51474929 27.2913635,4.74994787 27.1844512,2.98514644 C27.039356,0.525120204 26.2986068,-0.0173079403 24.1679983,0.983510186 C23.3403641,1.33218873 22.5684549,1.80067924 21.8770214,2.3739598 C20.6294201,3.48562457 19.4607388,4.6828829 18.3794633,5.95704148 C16.7228005,7.79011902 16.0770009,10.3229574 16.6535941,12.7259335 C17.0583333,14.4601756 17.4859824,16.1791381 17.883085,17.9133802 C17.9660312,18.4147282 18.2131716,18.8742821 18.5856513,19.2197916 C19.0188681,19.6689832 19.3958321,20.1692498 19.7082299,20.709559 C21.2267189,23.1260386 23.858473,24.6161809 26.7109827,24.6746324 C27.6197368,24.7204714 28.0473858,24.2773611 28.0550224,23.2612633 C28.0702956,21.0991905 28.062659,18.9218381 28.062659,16.7368459 Z" id="path-35"></path>
        <mask id="mask-36" maskContentUnits="userSpaceOnUse" maskUnits="objectBoundingBox" x="-2" y="-2" width="15.621617" height="28.1690564">
            <rect x="14.4467497" y="-1.4912096" width="15.621617" height="28.1690564" fill="white"></rect>
            <use xlink:href="#path-35" fill="black"></use>
        </mask>
        <path d="M14.8437223,90.5529801 C15.2025092,88.88796 14.5941797,87.162643 13.2705849,86.0913177 C12.5793836,85.3326692 11.6009378,84.9000846 10.5748687,84.8995037 C9.42174368,84.8995037 8.28389182,84.8995037 7.1154936,85.0064614 C5.6976793,85.0725704 4.35422739,85.6602401 3.34301831,86.6566653 C2.6175423,87.4206486 1.93024923,88.1846319 1.27350252,88.9486152 C0.281128067,90.1595539 -0.101621206,91.7587739 0.234926323,93.2880404 C0.455831809,94.4093066 0.850026113,95.4892907 1.40332454,96.4891304 C1.90831413,97.5773366 3.05245214,98.2204183 4.24413589,98.0858555 C5.13761688,98.0018173 6.07691741,98.1316945 6.7489373,97.375351 C7.30824502,96.8323102 8.08287736,96.571182 8.85663604,96.6648466 C9.62130276,96.685276 10.3864951,96.657207 11.1476129,96.5808084 C11.6533674,96.5440034 12.130872,96.3334883 12.4992893,95.9849014 C13.7211437,94.3728967 15.370647,92.9060487 14.8437223,90.5529801 Z" id="path-37"></path>
        <mask id="mask-38" maskContentUnits="userSpaceOnUse" maskUnits="objectBoundingBox" x="-2" y="-2" width="18.8298354" height="17.2040368">
            <rect x="-1.88461573" y="82.8995037" width="18.8298354" height="17.2040368" fill="white"></rect>
            <use xlink:href="#path-37" fill="black"></use>
        </mask>
        <path d="M1.38041477,58.1905799 C1.22768298,58.3892155 0.945129161,58.5802113 0.952765751,58.778847 C0.952765751,61.7354624 0.952765751,64.6997176 1.09786095,67.656333 C1.21688022,68.6714709 1.45526392,69.6690048 1.80806379,70.628228 C1.96040996,71.0461433 2.27495537,71.384826 2.68038811,71.5674921 C3.08582085,71.7501581 3.54779775,71.7613343 3.96158208,71.5984868 C7.65005488,70.1469185 11.3385277,68.6953503 14.9964541,67.1673837 C15.91602,66.7152314 16.7883414,66.1726781 17.6005312,65.5477391 C17.6804224,65.3530484 17.6634266,65.1320084 17.5547117,64.9518321 C16.1489956,64.0675479 14.6726583,63.3009574 13.1407628,62.6598822 C9.4064705,61.3534707 5.62635862,60.1769364 2.12116397,58.2898977 C1.88185263,58.2141584 1.63121559,58.1805536 1.38041477,58.1905799 Z" id="path-39"></path>
        <mask id="mask-40" maskContentUnits="userSpaceOnUse" maskUnits="objectBoundingBox" x="-2" y="-2" width="20.697693" height="17.5241899">
            <rect x="-1.04738594" y="56.1888496" width="20.697693" height="17.5241899" fill="white"></rect>
            <use xlink:href="#path-39" fill="black"></use>
        </mask>
        <path d="M15.4231857,25.7716583 C15.3444604,27.5687118 15.6034954,29.3645872 16.1868446,31.0660626 C16.4541253,32.0057621 16.9505036,32.3571944 17.874531,32.0898002 C21.5935501,31.0278634 25.0681984,29.6068545 27.6951853,26.4898026 C28.8496796,25.1225719 29.6845495,23.5147649 30.1388939,21.7836655 C30.4443575,20.6911694 30.2916257,19.4917156 30.8032772,18.4144991 C31.3760215,17.1539267 30.4214478,15.9468331 30.2992623,14.6862606 L30.2992623,13.9222773 C30.080614,11.3658517 29.2981834,8.88971172 28.0082854,6.67207577 C26.8704336,4.63988018 25.5340304,2.85215926 23.4263316,1.72146397 C20.7077057,0.315734692 17.9585334,-0.387129946 15.026083,1.23251465 C14.4942187,1.5705145 13.9286037,1.85216189 13.3383967,2.07289629 C10.8565051,2.83687959 10.4212195,5.1288295 9.52010187,7.06170725 C9.43525823,7.31260911 9.45169896,7.58673774 9.56592141,7.82569055 C10.0775729,9.00986467 10.5586781,10.232238 11.8568983,10.8281449 C12.1776351,10.9809416 12.7580159,11.1490179 12.8954745,11.0038611 C13.8195018,10.0336023 14.7817121,11.0649798 15.7286493,10.8969034 C16.7245297,10.8384303 17.7235194,10.9311594 18.691646,11.1719374 C18.9440675,11.2193807 19.1804536,11.3297411 19.3789391,11.4928104 C20.906257,12.7228235 21.9982894,15.0071336 21.5553672,16.9170918 C20.9368034,19.5604741 19.6844027,21.623229 17.1643281,22.7921234 C16.9275938,22.8990811 16.683223,22.9754794 16.4617619,23.0977168 C15.8851057,23.3918586 15.5157875,23.9783269 15.4995516,24.6256834 C15.4155491,25.145192 15.4308223,25.6570608 15.4231857,25.7716583 Z" id="path-41"></path>
        <mask id="mask-42" maskContentUnits="userSpaceOnUse" maskUnits="objectBoundingBox" x="-2" y="-2" width="25.5182769" height="35.8768719">
            <rect x="7.46653797" y="-1.70010547" width="25.5182769" height="35.8768719" fill="white"></rect>
            <use xlink:href="#path-41" fill="black"></use>
        </mask>
        <path d="M0.646384695,18.8346899 C0.356194288,21.7836655 1.73841702,24.3506494 2.46389303,27.0551503 C2.55878404,27.2936243 2.69880503,27.5115273 2.87626887,27.6968962 C4.91737549,30.2265094 7.88946601,31.8288162 11.1237857,32.1432791 C11.8874447,32.2425969 12.6511036,32.3724741 13.2849406,31.6772492 C13.7829114,31.0718946 13.8470923,30.2188426 13.445309,29.5457358 C13.2453579,28.7992518 13.1705225,28.0247638 13.2238479,27.2537859 L13.2238479,23.3803906 C13.2608024,22.7082473 12.7694215,22.1230217 12.1012692,22.0434198 C10.8183221,21.7836655 10.3219438,20.935644 9.89429477,19.7056309 C9.51340243,18.6429366 9.53240527,17.4778391 9.94775089,16.4281425 C10.2346529,15.5989022 10.6636098,14.8259349 11.2154248,14.1438325 C11.6048908,13.6472433 11.5667079,13.0971753 10.9939637,12.9061795 C9.81792887,12.5012684 9.19936511,11.4775307 8.32879389,10.7441068 C6.95420775,9.55993265 6.89311503,8.03196604 7.05348342,6.50399944 C7.18930406,6.01549332 7.35507748,5.53582194 7.54986174,5.06771083 C7.59568128,4.86907517 7.42003972,4.61696068 7.34367382,4.38776569 C7.22243602,4.43541247 7.10711953,4.49694072 7.00002729,4.57112169 C2.64717118,8.32991953 0.921301922,13.2652517 0.646384695,18.8346899 Z" id="path-43"></path>
        <mask id="mask-44" maskContentUnits="userSpaceOnUse" maskUnits="objectBoundingBox" x="-2" y="-2" width="17.1008366" height="31.8350248">
            <rect x="-1.39305808" y="2.38776569" width="17.1008366" height="31.8350248" fill="white"></rect>
            <use xlink:href="#path-43" fill="black"></use>
        </mask>
        <path d="M18.2334507,6.05324929 C18.1134005,7.33023296 17.3174323,8.4444784 16.1486617,8.97166551 C15.915496,9.06322775 15.6563513,9.06322775 15.4231857,8.97166551 C14.6595267,8.52855519 13.9416873,8.04724571 13.2314844,7.5353769 C13.0496973,7.36183178 12.9291097,7.13395829 12.8878379,6.88599109 C12.6960782,5.9984304 13.0319141,5.0796927 13.7507725,4.52528269 C14.5945525,3.71890264 15.8351602,3.4880636 16.9123207,3.93701554 C17.7398461,4.31035979 18.2612153,5.14550787 18.2334507,6.05324929 L18.2334507,6.05324929 Z" id="path-45"></path>
        <mask id="mask-46" maskContentUnits="userSpaceOnUse" maskUnits="objectBoundingBox" x="-2" y="-2" width="9.39984408" height="9.32960039">
            <rect x="10.8346634" y="1.7107368" width="9.39984408" height="9.32960039" fill="white"></rect>
            <use xlink:href="#path-45" fill="black"></use>
        </mask>
        <path d="M15.8758762,72.0054609 C15.8758762,72.9484983 15.5551395,73.6873347 15.9522421,74.3185014 C16.6166254,75.3654957 16.4333473,76.4199155 16.6318986,77.4706225 C16.604149,77.7193364 16.6400614,77.9687629 16.7388109,78.2131717 C17.5941089,79.3269954 17.6781114,80.5187868 18.1897629,81.6660252 C18.7854169,82.9989009 19.2436123,84.3429148 19.7170808,85.6869288 C19.8040799,85.7840307 19.9897269,85.8517239 20.2058226,85.8651406 C20.4527547,85.8343496 20.6790381,85.7729464 20.8625693,85.6869288 C22.8480826,84.9443796 25.0168741,84.5396903 27.5751316,84.8552737 C27.9576786,84.8810486 28.3457096,84.8810486 28.7282566,84.8552737 C28.9870839,84.8612287 29.2384806,84.8122618 29.4172552,84.7210709 C29.5960297,84.62988 29.6845716,84.505448 29.6599206,84.3800423 C29.774036,84.0710844 29.7584504,83.7540972 29.614101,83.4481431 C29.1615067,82.7972473 28.9621039,82.1110757 29.0260836,81.4246967 C29.0359019,81.1751118 28.9846313,80.9258449 28.8733518,80.6821476 C27.8558241,79.0739952 27.3787683,77.3965462 27.4605827,75.7144938 C27.5527736,75.3384536 27.4638859,74.9571421 27.2009387,74.6006701 C26.7623549,74.0763297 26.5894924,73.5084093 26.6969238,72.9447855 C26.6969238,71.0030195 25.6048915,69.1355084 25.1696058,67.2271572 C25.0926704,66.8335908 24.4517978,66.5220124 23.6422879,66.484608 C20.8619817,66.2422139 18.1248536,65.8946344 15.4558638,65.4450392 C14.5929292,65.3076676 14.1958265,65.4227627 14.1881899,65.8163138 C14.1065873,66.7505554 14.2994436,67.6856806 14.7609341,68.5934476 C15.4482272,69.7666752 16.2500691,70.9807431 15.8758762,72.0054609 Z" id="path-47"></path>
        <mask id="mask-48" maskContentUnits="userSpaceOnUse" maskUnits="objectBoundingBox" x="-2" y="-2" width="19.5653285" height="24.4756484">
            <rect x="12.1699741" y="63.3894921" width="19.5653285" height="24.4756484" fill="white"></rect>
            <use xlink:href="#path-47" fill="black"></use>
        </mask>
        <path d="M21.053484,51.2937037 C21.0108551,51.0362825 20.9547766,50.781272 20.885479,50.5297204 C19.9690883,47.7411813 18.8006901,45.0061211 18.1744897,42.1259041 C16.7464475,35.632046 14.1194606,29.5125397 12.492867,23.0874402 C12.233223,22.0637025 11.9201228,20.7954903 10.744088,20.214863 C10.0873413,20.8260496 9.39241162,21.3990371 8.78148445,22.0637025 C7.2352213,23.7918567 5.40383322,25.2415677 3.36714238,26.3496489 C2.75922929,26.615756 2.4520904,27.2996781 2.65693954,27.9310943 C2.82342479,28.6759021 3.04812224,29.406479 3.32895943,30.1160866 C4.59014034,33.5837101 5.67591199,37.1126918 6.58214663,40.6896155 C7.1930738,43.0197645 7.97964253,45.2735153 8.37674519,47.6953423 C8.62242925,49.4613074 9.23084729,51.1572776 10.1637072,52.6765135 C11.0342784,54.0287639 11.301559,55.7324467 11.8743033,57.3215319 C12.1263107,58.0091169 12.2943157,58.0167568 13.0197917,57.5889261 C13.4858928,57.3797766 13.9223946,57.1100581 14.3180119,56.7867436 C15.9637651,55.1664584 17.8148874,53.7691794 19.8239931,52.6306745 C20.1518549,52.4282993 20.4521735,52.1843473 20.7174741,51.9048903 C20.8569958,51.7175616 20.9700616,51.5119001 21.053484,51.2937037 Z" id="path-49"></path>
        <mask id="mask-50" maskContentUnits="userSpaceOnUse" maskUnits="objectBoundingBox" x="-2" y="-2" width="22.4598207" height="41.6650632">
            <rect x="0.593663333" y="18.214863" width="22.4598207" height="41.6650632" fill="white"></rect>
            <use xlink:href="#path-49" fill="black"></use>
        </mask>
        <path d="M0.350689467,13.8050431 L0.259050391,13.8050431 L0.259050391,22.7130884 C0.259050391,23.2249572 0.297233339,23.7444658 0.343052877,24.241055 C0.546145332,24.7188369 1.05547915,24.9895354 1.56490722,24.8904408 C2.51728862,24.5236431 3.42231061,24.0440086 4.26062337,23.461792 C5.76553258,22.2420081 7.17008922,20.9032804 8.46074768,19.4585195 C10.3622585,17.2658874 10.9960954,14.5231874 11.599386,11.7270085 C11.9124862,10.2907199 11.2022834,9.22878307 10.9579125,8.04460895 C10.3819323,5.50828028 8.93980923,3.2523174 6.87997362,1.66534838 C5.71101266,0.636957299 4.22048096,0.0480552776 2.66457613,-0.000135218284 C1.62599994,-0.000135218284 1.27471682,0.167941108 1.00743618,1.12292024 C0.561404284,2.45804108 0.331947427,3.85600104 0.327779698,5.26370973 C0.427055364,8.12100728 0.350689467,10.9630252 0.350689467,13.8050431 Z" id="path-51"></path>
        <mask id="mask-52" maskContentUnits="userSpaceOnUse" maskUnits="objectBoundingBox" x="-2" y="-2" width="15.4186784" height="28.9109018">
            <rect x="-1.74094961" y="-2.00013522" width="15.4186784" height="28.9109018" fill="white"></rect>
            <use xlink:href="#path-51" fill="black"></use>
        </mask>
        <path d="M24.2955806,96.9809193 L24.2955806,96.9809193 L25.8228986,96.9809193 C29.182998,96.9274405 31.3441529,95.1702789 32.5278243,92.144905 C32.8307103,91.4425455 32.915842,90.6653891 32.7721951,89.9140738 C32.1765411,87.7749205 31.1761479,86.0101191 28.8088051,85.1697374 C25.8992644,84.13836 23.1806385,84.4057541 21.0729398,86.6442252 C20.1479608,87.7020261 19.3294355,88.8484481 18.6292311,90.0668704 C18.3624421,90.5033503 18.2621091,91.0215057 18.3466773,91.5260785 C18.6030076,92.6363554 18.9608898,93.7206875 19.4157998,94.7653677 C19.9743808,96.1092572 21.2829134,96.9880016 22.7377163,96.996199 C23.2875508,97.0114786 23.7839291,96.9809193 24.2955806,96.9809193 Z" id="path-53"></path>
        <mask id="mask-54" maskContentUnits="userSpaceOnUse" maskUnits="objectBoundingBox" x="-2" y="-2" width="18.5227419" height="16.4083386">
            <rect x="16.3174436" y="82.5921387" width="18.5227419" height="16.4083386" fill="white"></rect>
            <use xlink:href="#path-53" fill="black"></use>
        </mask>
        <path d="M27.4682193,60.15591 C27.5140918,59.5710884 27.5140918,58.98357 27.4682193,58.3987484 C27.1551192,56.6492266 26.8496556,54.892065 26.41437,53.1807424 C26.2678141,52.6759191 25.8984178,52.2659361 25.4116772,52.0678811 C24.9249365,51.8698261 24.3743666,51.9054742 23.9172051,52.1646447 C23.5702066,52.3280497 23.2358219,52.5170189 22.9168119,52.7299923 C20.5723789,54.2579589 18.0446677,55.533811 16.0438812,57.5201676 C15.4100443,58.1389941 14.6387487,58.6050239 13.9438191,59.1703715 C13.2488894,59.7357192 12.5539597,60.3087067 11.8895764,60.9122535 C11.3931981,61.3630036 11.4390176,61.7373554 11.9583057,62.0200293 C15.7766006,64.1057037 20.1218201,64.7627293 24.2455785,65.9851026 C24.6263586,66.0594786 25.0179234,66.0594786 25.3987035,65.9851026 C25.9145905,65.9914024 26.3852467,65.6914941 26.5976481,65.2211193 C27.2280744,63.6092183 27.5242662,61.8858972 27.4682193,60.15591 Z" id="path-55"></path>
        <mask id="mask-56" maskContentUnits="userSpaceOnUse" maskUnits="objectBoundingBox" x="-2" y="-2" width="19.9607672" height="18.0996724">
            <rect x="9.54185656" y="49.9412122" width="19.9607672" height="18.0996724" fill="white"></rect>
            <use xlink:href="#path-55" fill="black"></use>
        </mask>
        <path d="M0.461433509,15.9758374 C0.0261478989,18.008033 0.514889637,20.0096692 0.682894609,22.0113055 C0.690332478,22.6496336 0.822644048,23.280327 1.07236068,23.8677849 C2.46985659,26.4806078 4.06590383,28.8871552 6.83034928,30.3769226 C8.96016637,31.5590189 11.2904696,32.3361166 13.70328,32.6688725 C14.5509414,32.7758302 14.6654903,32.7605505 14.6654903,32.0653257 C14.6654903,30.3922023 14.6654903,28.7190789 14.6196707,27.0459554 C14.5662146,25.7777431 14.3982096,24.5248105 14.2760242,23.2260389 C13.3519968,22.7982083 12.4279695,22.3932971 11.5115787,21.942547 C11.042612,21.7504571 10.6030124,21.4932721 10.2057219,21.1785637 C9.81044985,20.8541517 9.5097419,20.4292873 9.33515069,19.9485505 C8.57149172,16.8926173 9.57188497,11.5447342 13.3749066,10.0855261 C13.7264724,9.93023253 14.0659697,9.74892014 14.390573,9.54309797 C17.0099233,8.0686102 17.6590334,7.41922439 18.9037975,5.04323632 C19.3950175,4.11967204 19.3716772,3.00718531 18.8421536,2.10505475 C18.3126299,1.20292418 17.3528773,0.640550415 16.307357,0.619773003 C15.02441,0.558654339 13.7338263,0.581573838 12.4432427,0.619773003 C11.9341021,0.618174635 11.4291158,0.711442459 10.9541077,0.894806992 C6.15832939,2.97284157 2.55385907,6.19685111 1.06472409,11.3919376 C0.748844026,12.9025788 0.547176436,14.4348819 0.461433509,15.9758374 Z" id="path-57"></path>
        <mask id="mask-58" maskContentUnits="userSpaceOnUse" maskUnits="objectBoundingBox" x="-2" y="-2" width="22.9709308" height="36.1357524">
            <rect x="-1.71451316" y="-1.41795457" width="22.9709308" height="36.1357524" fill="white"></rect>
            <use xlink:href="#path-57" fill="black"></use>
        </mask>
        <path d="M32.0081854,16.5259054 C32.1150976,16.1668332 32.3823783,15.7619221 32.313649,15.4563287 C31.54999,12.3469167 30.786331,9.26042415 28.4495346,6.85387675 C26.9373656,5.28095569 25.2308156,3.90743389 23.3712025,2.76656608 C22.1035286,2.00258278 21.9202504,2.00258278 21.538421,3.30135439 C21.1031353,4.75292267 20.8969474,6.25796977 19.8660078,7.51854222 C18.9648902,8.61867818 19.1023489,9.04650883 20.1027421,10.1695643 C20.2707471,10.3605601 20.476935,10.5286364 20.64494,10.7196323 C22.034584,12.2569802 22.6925044,14.3200286 22.4495784,16.3784568 C22.2066524,18.436885 21.0865736,20.289924 19.3772661,21.4612375 C18.5296475,22.0356565 17.7232868,22.6687652 16.9641038,23.3559161 C16.4755843,23.7854561 16.2615885,24.4482448 16.4066327,25.0825183 C16.8067912,27.4307274 17.0288854,29.8058468 17.071016,32.187563 C17.0544182,32.4464042 17.1702249,32.6959909 17.3785576,32.850377 C17.5868903,33.0047631 17.8592904,33.042859 18.1019556,32.9515464 C20.0874689,32.0653257 22.1417115,31.3013424 24.0355858,30.2546853 C27.3727755,28.4134855 30.0761282,25.9458195 31.0612483,22.034225 C31.1834337,21.5452757 31.6110827,21.1021653 31.6263559,20.6284957 C31.6645388,19.2533257 31.9700024,17.9010753 32.0081854,16.5259054 Z" id="path-59"></path>
        <mask id="mask-60" maskContentUnits="userSpaceOnUse" maskUnits="objectBoundingBox" x="-2" y="-2" width="19.9628308" height="34.7531828">
            <rect x="14.3619641" y="0.247279404" width="19.9628308" height="34.7531828" fill="white"></rect>
            <use xlink:href="#path-59" fill="black"></use>
        </mask>
        <path d="M15.8720714,5.03559649 C15.7727958,6.46424526 14.8334952,7.1212709 13.833102,7.69425838 C13.5998048,7.79201579 13.3342427,7.77505781 13.1152626,7.64841938 C12.5997485,7.28651202 12.1191064,6.8772812 11.6795837,6.4260461 C11.0915663,5.81485946 11.7941326,5.28007115 11.878135,4.70708367 C11.9539812,4.21402241 12.127967,3.74120352 12.3897866,3.31663406 C12.5577915,3.0492399 13.0618064,2.71308725 13.2450846,2.79712541 C14.0545749,3.14671928 14.8229098,3.58485613 15.5360615,4.10353686 C15.7346128,4.27925302 15.7804324,4.77584217 15.8720714,5.03559649 Z" id="path-61"></path>
        <mask id="mask-62" maskContentUnits="userSpaceOnUse" maskUnits="objectBoundingBox" x="-2" y="-2" width="8.4250108" height="8.97315082">
            <rect x="9.44706063" y="0.783982308" width="8.4250108" height="8.97315082" fill="white"></rect>
            <use xlink:href="#path-61" fill="black"></use>
        </mask>
    </defs>
    <g id="Layout" stroke="none" stroke-width="1" fill="none" fill-rule="evenodd">
        <g id="Character-Copy" transform="translate(-287.000000, -389.000000)">
            <g id="UpperBody" transform="translate(243.000000, 345.000000)">
                <mask id="mask-2" fill="white">
                    <use xlink:href="#path-1"></use>
                </mask>
                <use id="Mask" fill="#F2F5F6" transform="translate(152.500000, 152.500000) rotate(32.000000) translate(-152.500000, -152.500000) " xlink:href="#path-1"></use>
                <g id="Robot-Copy" mask="url(#mask-2)">
                    <g transform="translate(65.000000, -29.000000)">
                        <g id="Legs-Copy" transform="translate(28.376812, 214.782074)">
                            <g id="Right-leg" transform="translate(72.876812, 12.254833)">
                                <g id="right-shin">
                                    <use fill="#FBAD1C" fill-rule="evenodd" xlink:href="#path-3"></use>
                                    <use stroke="#000000" mask="url(#mask-4)" stroke-width="4" xlink:href="#path-3"></use>
                                </g>
                                <g id="right-knee">
                                    <use fill="#209BFF" fill-rule="evenodd" xlink:href="#path-5"></use>
                                    <use stroke="#000000" mask="url(#mask-6)" stroke-width="4" xlink:href="#path-5"></use>
                                </g>
                                <g id="right-upper-leg">
                                    <use fill="#FBAD1C" fill-rule="evenodd" xlink:href="#path-7"></use>
                                    <use stroke="#000000" mask="url(#mask-8)" stroke-width="4" xlink:href="#path-7"></use>
                                </g>
                            </g>
                            <g id="Left-leg" transform="translate(0.000000, 9.029877)">
                                <g id="left-shin">
                                    <use fill="#FBAD1C" fill-rule="evenodd" xlink:href="#path-9"></use>
                                    <use stroke="#000000" mask="url(#mask-10)" stroke-width="4" xlink:href="#path-9"></use>
                                </g>
                                <g id="left-knee">
                                    <use fill="#209BFF" fill-rule="evenodd" xlink:href="#path-11"></use>
                                    <use stroke="#000000" mask="url(#mask-12)" stroke-width="4" xlink:href="#path-11"></use>
                                </g>
                                <g id="left-upper-leg">
                                    <use fill="#FBAD1C" fill-rule="evenodd" xlink:href="#path-13"></use>
                                    <use stroke="#000000" mask="url(#mask-14)" stroke-width="4" xlink:href="#path-13"></use>
                                </g>
                            </g>
                            <g id="lower-torso">
                                <use fill="#209BFF" fill-rule="evenodd" xlink:href="#path-15"></use>
                                <use stroke="#000000" mask="url(#mask-16)" stroke-width="4" xlink:href="#path-15"></use>
                            </g>
                        </g>
                        <g id="Head-Copy" transform="translate(50.304348, 0.000000)">
                            <g id="Neck" transform="translate(33.581377, 100.347733) scale(-1, 1) translate(-33.581377, -100.347733) ">
                                <use fill="#209BFF" fill-rule="evenodd" xlink:href="#path-17"></use>
                                <use stroke="#000000" mask="url(#mask-18)" stroke-width="4" xlink:href="#path-17"></use>
                            </g>
                            <g id="Face">
                                <use fill="#209BFF" fill-rule="evenodd" xlink:href="#path-19"></use>
                                <use stroke="#000000" mask="url(#mask-20)" stroke-width="4" xlink:href="#path-19"></use>
                            </g>
                            <g id="Right-eye">
                                <use fill="#FFFFFF" fill-rule="evenodd" xlink:href="#path-21"></use>
                                <use stroke="#000000" mask="url(#mask-22)" stroke-width="4" xlink:href="#path-21"></use>
                            </g>
                            <g id="Left-eye-lopez">
                                <use fill="#FFFFFF" fill-rule="evenodd" xlink:href="#path-23"></use>
                                <use stroke="#000000" mask="url(#mask-24)" stroke-width="4" xlink:href="#path-23"></use>
                            </g>
                            <g id="mouth" transform="translate(33.614492, 86.194201) rotate(-112.000000) translate(-33.614492, -86.194201) ">
                                <use fill="#003959" fill-rule="evenodd" xlink:href="#path-25"></use>
                                <use stroke="#000000" mask="url(#mask-26)" stroke-width="4" xlink:href="#path-25"></use>
                            </g>
                        </g>
                        <g id="Upper-body-Copy" transform="translate(0.000000, 101.263620)">
                            <g id="Body">
                                <use fill="#209BFF" fill-rule="evenodd" xlink:href="#path-27"></use>
                                <use stroke="#000000" mask="url(#mask-28)" stroke-width="4" xlink:href="#path-27"></use>
                            </g>
                            <g id="Lightning">
                                <use fill="#FBAD1C" fill-rule="evenodd" xlink:href="#path-29"></use>
                                <use stroke="#000000" mask="url(#mask-30)" stroke-width="6" xlink:href="#path-29"></use>
                            </g>
                            <g id="Left-arm" transform="translate(8.384058, 7.094903)">
                                <g id="left-forearm">
                                    <use fill="#FBAD1C" fill-rule="evenodd" xlink:href="#path-31"></use>
                                    <use stroke="#000000" mask="url(#mask-32)" stroke-width="4" xlink:href="#path-31"></use>
                                </g>
                                <g id="left-upper-arm">
                                    <use fill="#FBAD1C" fill-rule="evenodd" xlink:href="#path-33"></use>
                                    <use stroke="#000000" mask="url(#mask-34)" stroke-width="4" xlink:href="#path-33"></use>
                                </g>
                                <g id="left-shoulder">
                                    <use fill="#209BFF" fill-rule="evenodd" xlink:href="#path-35"></use>
                                    <use stroke="#000000" mask="url(#mask-36)" stroke-width="4" xlink:href="#path-35"></use>
                                </g>
                                <g id="left-wrist">
                                    <use fill="#FBAD1C" fill-rule="evenodd" xlink:href="#path-37"></use>
                                    <use stroke="#000000" mask="url(#mask-38)" stroke-width="4" xlink:href="#path-37"></use>
                                </g>
                                <g id="left-elbow">
                                    <use fill="#209BFF" fill-rule="evenodd" xlink:href="#path-39"></use>
                                    <use stroke="#000000" mask="url(#mask-40)" stroke-width="4" xlink:href="#path-39"></use>
                                </g>
                            </g>
                            <g id="Left-hand" transform="translate(0.000000, 104.488576)">
                                <g id="Shape">
                                    <use fill="#209BFF" fill-rule="evenodd" xlink:href="#path-41"></use>
                                    <use stroke="#000000" mask="url(#mask-42)" stroke-width="4" xlink:href="#path-41"></use>
                                </g>
                                <g id="Shape">
                                    <use fill="#209BFF" fill-rule="evenodd" xlink:href="#path-43"></use>
                                    <use stroke="#000000" mask="url(#mask-44)" stroke-width="4" xlink:href="#path-43"></use>
                                </g>
                                <g id="Bolt">
                                    <use fill="#000000" fill-rule="evenodd" xlink:href="#path-45"></use>
                                    <use stroke="#000000" mask="url(#mask-46)" stroke-width="4" xlink:href="#path-45"></use>
                                </g>
                            </g>
                            <g id="Right-arm" transform="translate(132.210145, 0.644991)">
                                <g id="right-forearm">
                                    <use fill="#FBAD1C" fill-rule="evenodd" xlink:href="#path-47"></use>
                                    <use stroke="#000000" mask="url(#mask-48)" stroke-width="4" xlink:href="#path-47"></use>
                                </g>
                                <g id="right-upper-arm">
                                    <use fill="#FBAD1C" fill-rule="evenodd" xlink:href="#path-49"></use>
                                    <use stroke="#000000" mask="url(#mask-50)" stroke-width="4" xlink:href="#path-49"></use>
                                </g>
                                <g id="right-shoulder">
                                    <use fill="#209BFF" fill-rule="evenodd" xlink:href="#path-51"></use>
                                    <use stroke="#000000" mask="url(#mask-52)" stroke-width="4" xlink:href="#path-51"></use>
                                </g>
                                <g id="right-wrist">
                                    <use fill="#FBAD1C" fill-rule="evenodd" xlink:href="#path-53"></use>
                                    <use stroke="#000000" mask="url(#mask-54)" stroke-width="4" xlink:href="#path-53"></use>
                                </g>
                                <g id="right-elbow">
                                    <use fill="#209BFF" fill-rule="evenodd" xlink:href="#path-55"></use>
                                    <use stroke="#000000" mask="url(#mask-56)" stroke-width="4" xlink:href="#path-55"></use>
                                </g>
                            </g>
                            <g id="Right-hand" transform="translate(145.108696, 96.748682)">
                                <g id="Shape">
                                    <use fill="#209BFF" fill-rule="evenodd" xlink:href="#path-57"></use>
                                    <use stroke="#000000" mask="url(#mask-58)" stroke-width="4" xlink:href="#path-57"></use>
                                </g>
                                <g id="Shape">
                                    <use fill="#209BFF" fill-rule="evenodd" xlink:href="#path-59"></use>
                                    <use stroke="#000000" mask="url(#mask-60)" stroke-width="4" xlink:href="#path-59"></use>
                                </g>
                                <g id="Bolt">
                                    <use fill="#000000" fill-rule="evenodd" xlink:href="#path-61"></use>
                                    <use stroke="#000000" mask="url(#mask-62)" stroke-width="4" xlink:href="#path-61"></use>
                                </g>
                            </g>
                        </g>
                    </g>
                </g>
            </g>
        </g>
    </g>
</svg>